<?xml version="1.0" encoding="utf-8" standalone="yes"?>
<!DOCTYPE svg PUBLIC "-//W3C//DTD SVG 1.1//EN" "http://www.w3.org/Graphics/SVG/1.1/DTD/svg11.dtd">
<svg style="fill:none;stroke:none;fill-rule:evenodd;clip-rule:evenodd;stroke-linecap:round;stroke-linejoin:round;stroke-miterlimit:1.5;" version="1.1" xmlns="http://www.w3.org/2000/svg" xmlns:xlink="http://www.w3.org/1999/xlink" width="884" height="926" viewBox="0 0 884 926"><style class="text-font-style fontImports" data-font-family="Roboto">@import url(https://fonts.googleapis.com/css2?family=Roboto:wght@400;700&amp;amp;display=block);</style><g id="items" style="isolation: isolate"><g id="blend" style="mix-blend-mode: normal"><g id="g-root-cp_10_g-10_1q7l2kaqzk740-fill" data-item-order="-706430" transform="translate(433.90625, 668)"><g id="cp_10_g-10_1q7l2kaqzk740-fill-merged" stroke="none" fill="#5d83c0" fill-opacity="1"><g><path d="M10 10 H105C174.036 10 226 60.964 226 130 H250L178 209.5L106 130 H130C130 116.193 118.807 106 105 106 H10 V10"></path></g></g></g><g id="g-root-cp_10_g-10_1q7l2kaqzk740-stroke" data-item-order="-706430" transform="translate(433.90625, 668)"><g id="cp_10_g-10_1q7l2kaqzk740-stroke" fill="none" stroke-linecap="round" stroke-linejoin="round" stroke-miterlimit="4" stroke="#2c2c2c" stroke-width="1" stroke-opacity="1"><g><path d="M 10 10L 105 10C 174.0356 10 226.0001 60.9644 226.0001 130L 250 130L 178 209.5L 106 130L 130 130C 130 116.1929 118.8071 106.0001 105 106L 10 106L 10 10Z"></path></g></g></g><g id="g-root-cp_9_g-9_1hckjeiqzk4qx-fill" data-item-order="-706426" transform="translate(217.90625, 644)"><g id="cp_9_g-9_1hckjeiqzk4qx-fill-merged" stroke="none" fill="#5885ce" fill-opacity="1"><g><path d="M226 130 H131C61.965 130 10 79.036 10 10 H106C106 23.807 117.193 34 131 34 H226 V130"></path></g></g></g><g id="g-root-cp_9_g-9_1hckjeiqzk4qx-stroke" data-item-order="-706426" transform="translate(217.90625, 644)"><g id="cp_9_g-9_1hckjeiqzk4qx-stroke" fill="none" stroke-linecap="round" stroke-linejoin="round" stroke-miterlimit="4" stroke="#2c2c2c" stroke-width="1" stroke-opacity="1"><g><path d="M 226.0001 130L 131.0001 130C 61.9645 130 10 79.0356 10 10L 106.0001 10C 106.0001 23.8071 117.1931 33.9999 131.0001 34L 226.0001 34L 226.0001 130Z"></path></g></g></g><g id="g-root-cp_7_g-7_1cwr1a2qzk5j6-fill" data-item-order="-706422" transform="translate(433.90625, 500)"><g id="cp_7_g-7_1cwr1a2qzk5j6-fill-merged" stroke="none" fill="#4e89ea" fill-opacity="1"><g><path d="M10 130 H105C174.036 130 226 79.036 226 10 H130C130 23.807 118.807 34 105 34 H10 V130"></path></g></g></g><g id="g-root-cp_7_g-7_1cwr1a2qzk5j6-stroke" data-item-order="-706422" transform="translate(433.90625, 500)"><g id="cp_7_g-7_1cwr1a2qzk5j6-stroke" fill="none" stroke-linecap="round" stroke-linejoin="round" stroke-miterlimit="4" stroke="#2c2c2c" stroke-width="1" stroke-opacity="1"><g><path d="M 10 130L 105 130C 174.0356 130 226.0001 79.0356 226.0001 10L 130 10C 130 23.8071 118.8071 33.9999 105 34L 10 34L 10 130Z"></path></g></g></g><g id="g-root-cp_8_g-8_1414116qzk6bv-fill" data-item-order="-706418" transform="translate(217.90625, 524)"><g id="cp_8_g-8_1414116qzk6bv-fill-merged" stroke="none" fill="#5287dd" fill-opacity="1"><g><path d="M226 10 H131C61.965 10 10 60.964 10 130 H106C106 116.193 117.193 106 131 106 H226 V10"></path></g></g></g><g id="g-root-cp_8_g-8_1414116qzk6bv-stroke" data-item-order="-706418" transform="translate(217.90625, 524)"><g id="cp_8_g-8_1414116qzk6bv-stroke" fill="none" stroke-linecap="round" stroke-linejoin="round" stroke-miterlimit="4" stroke="#2c2c2c" stroke-width="1" stroke-opacity="1"><g><path d="M 226.0001 10L 131.0001 10C 61.9645 10 10 60.9644 10 130L 106.0001 130C 106.0001 116.1929 117.1931 106.0001 131.0001 106L 226.0001 106L 226.0001 10Z"></path></g></g></g><g id="g-root-cp_6_g-6_zlaiwqqzk744-fill" data-item-order="-706414" transform="translate(433.90625, 380)"><g id="cp_6_g-6_zlaiwqqzk744-fill-merged" stroke="none" fill="#4e8df3" fill-opacity="1"><g><path d="M10 10 H105C174.036 10 226 60.964 226 130 H130C130 116.193 118.807 106 105 106 H10 V10"></path></g></g></g><g id="g-root-cp_6_g-6_zlaiwqqzk744-stroke" data-item-order="-706414" transform="translate(433.90625, 380)"><g id="cp_6_g-6_zlaiwqqzk744-stroke" fill="none" stroke-linecap="round" stroke-linejoin="round" stroke-miterlimit="4" stroke="#2c2c2c" stroke-width="1" stroke-opacity="1"><g><path d="M 10 10L 105 10C 174.0356 10 226.0001 60.9644 226.0001 130L 130 130C 130 116.1929 118.8071 106.0001 105 106L 10 106L 10 10Z"></path></g></g></g><g id="g-root-cp_5_g-5_zlaiwqqzk745-fill" data-item-order="-706410" transform="translate(217.90625, 356)"><g id="cp_5_g-5_zlaiwqqzk745-fill-merged" stroke="none" fill="#4f91fc" fill-opacity="1"><g><path d="M226 130 H131C61.965 130 10 79.036 10 10 H106C106 23.807 117.193 34 131 34 H226 V130"></path></g></g></g><g id="g-root-cp_5_g-5_zlaiwqqzk745-stroke" data-item-order="-706410" transform="translate(217.90625, 356)"><g id="cp_5_g-5_zlaiwqqzk745-stroke" fill="none" stroke-linecap="round" stroke-linejoin="round" stroke-miterlimit="4" stroke="#2c2c2c" stroke-width="1" stroke-opacity="1"><g><path d="M 226.0001 130L 131.0001 130C 61.9645 130 10 79.0356 10 10L 106.0001 10C 106.0001 23.8071 117.1931 33.9999 131.0001 34L 226.0001 34L 226.0001 130Z"></path></g></g></g><g id="g-root-cp_4_g-4_qq9zqyqzk4r2-fill" data-item-order="-706406" transform="translate(217.90625, 236)"><g id="cp_4_g-4_qq9zqyqzk4r2-fill-merged" stroke="none" fill="#619dff" fill-opacity="1"><g><path d="M226 10 H131C61.965 10 10 60.964 10 130 H106C106 116.193 117.193 106 131 106 H226 V10"></path></g></g></g><g id="g-root-cp_4_g-4_qq9zqyqzk4r2-stroke" data-item-order="-706406" transform="translate(217.90625, 236)"><g id="cp_4_g-4_qq9zqyqzk4r2-stroke" fill="none" stroke-linecap="round" stroke-linejoin="round" stroke-miterlimit="4" stroke="#2c2c2c" stroke-width="1" stroke-opacity="1"><g><path d="M 226.0001 10L 131.0001 10C 61.9645 10 10 60.9644 10 130L 106.0001 130C 106.0001 116.1929 117.1931 106.0001 131.0001 106L 226.0001 106L 226.0001 10Z"></path></g></g></g><g id="g-root-cp_3_g-3_maghmiqzk5jb-fill" data-item-order="-706402" transform="translate(433.90625, 212)"><g id="cp_3_g-3_maghmiqzk5jb-fill-merged" stroke="none" fill="#7caeff" fill-opacity="1"><g><path d="M10 130 H105C174.036 130 226 79.036 226 10 H130C130 23.807 118.807 34 105 34 H10 V130"></path></g></g></g><g id="g-root-cp_3_g-3_maghmiqzk5jb-stroke" data-item-order="-706402" transform="translate(433.90625, 212)"><g id="cp_3_g-3_maghmiqzk5jb-stroke" fill="none" stroke-linecap="round" stroke-linejoin="round" stroke-miterlimit="4" stroke="#2c2c2c" stroke-width="1" stroke-opacity="1"><g><path d="M 10 130L 105 130C 174.0356 130 226.0001 79.0356 226.0001 10L 130 10C 130 23.8071 118.8071 33.9999 105 34L 10 34L 10 130Z"></path></g></g></g><g id="g-root-cp_2_g-2_maghmiqzk5jc-fill" data-item-order="-706398" transform="translate(433.90625, 92)"><g id="cp_2_g-2_maghmiqzk5jc-fill-merged" stroke="none" fill="#98bfff" fill-opacity="1"><g><path d="M10 10 H105C174.036 10 226 60.964 226 130 H130C130 116.193 118.807 106 105 106 H10 V10"></path></g></g></g><g id="g-root-cp_2_g-2_maghmiqzk5jc-stroke" data-item-order="-706398" transform="translate(433.90625, 92)"><g id="cp_2_g-2_maghmiqzk5jc-stroke" fill="none" stroke-linecap="round" stroke-linejoin="round" stroke-miterlimit="4" stroke="#2c2c2c" stroke-width="1" stroke-opacity="1"><g><path d="M 10 10L 105 10C 174.0356 10 226.0001 60.9644 226.0001 130L 130 130C 130 116.1929 118.8071 106.0001 105 106L 10 106L 10 10Z"></path></g></g></g><g id="g-root-cp_1_g-1_humzi2qzk6bl-fill" data-item-order="-706394" transform="translate(217.90625, 92)"><g id="cp_1_g-1_humzi2qzk6bl-fill-merged" stroke="none" fill="#b4d0ff" fill-opacity="1"><g><path d="M226 10 H10 V106 H226 V10"></path></g></g></g><g id="g-root-cp_1_g-1_humzi2qzk6bl-stroke" data-item-order="-706394" transform="translate(217.90625, 92)"><g id="cp_1_g-1_humzi2qzk6bl-stroke" fill="none" stroke-linecap="round" stroke-linejoin="round" stroke-miterlimit="4" stroke="#2c2c2c" stroke-width="1" stroke-opacity="1"><g><path d="M 226 10L 10 10L 10 106L 226 106L 226 10Z"></path></g></g></g><g id="g-root-cp_-1_container_8yzz96qzk74a-fill" data-item-order="-706365" transform="translate(46.875, 137)"></g><g id="g-root-cp_-1_container_8yzz96qzk74a-stroke" data-item-order="-706365" transform="translate(46.875, 137)"></g><g id="g-root-cp_-1_container_1_4jsy7uqzk4qr-fill" data-item-order="-706353" transform="translate(65.65625, 281)"></g><g id="g-root-cp_-1_container_1_4jsy7uqzk4qr-stroke" data-item-order="-706353" transform="translate(65.65625, 281)"></g><g id="g-root-cp_-1_container_2_1up9zy2qzk5cc-fill" data-item-order="-706341" transform="translate(65.859375, 425)"></g><g id="g-root-cp_-1_container_2_1up9zy2qzk5cc-stroke" data-item-order="-706341" transform="translate(65.859375, 425)"></g><g id="g-root-cp_-1_container_3_1up9zy2qzk5cd-fill" data-item-order="-706329" transform="translate(15.625, 569)"></g><g id="g-root-cp_-1_container_3_1up9zy2qzk5cd-stroke" data-item-order="-706329" transform="translate(15.625, 569)"></g><g id="g-root-cp_-1_container_4_1q9ghtmqzk64m-fill" data-item-order="-706317" transform="translate(36.328125, 713)"></g><g id="g-root-cp_-1_container_4_1q9ghtmqzk64m-stroke" data-item-order="-706317" transform="translate(36.328125, 713)"></g><g id="g-root-cp_-1_container_5_1hdthkqqzk6xb-fill" data-item-order="-706305" transform="translate(673.90625, 137)"></g><g id="g-root-cp_-1_container_5_1hdthkqqzk6xb-stroke" data-item-order="-706305" transform="translate(673.90625, 137)"></g><g id="g-root-cp_-1_container_6_1ltmzp6qzk6ww-fill" data-item-order="-706293" transform="translate(673.90625, 290)"></g><g id="g-root-cp_-1_container_6_1ltmzp6qzk6ww-stroke" data-item-order="-706293" transform="translate(673.90625, 290)"></g><g id="g-root-cp_-1_container_7_1cxzzgaqzk7pl-fill" data-item-order="-706281" transform="translate(673.90625, 431)"></g><g id="g-root-cp_-1_container_7_1cxzzgaqzk7pl-stroke" data-item-order="-706281" transform="translate(673.90625, 431)"></g><g id="g-root-cp_-1_container_8_18isyeyqzk5c2-fill" data-item-order="-706269" transform="translate(673.90625, 569)"></g><g id="g-root-cp_-1_container_8_18isyeyqzk5c2-stroke" data-item-order="-706269" transform="translate(673.90625, 569)"></g><g id="g-root-cp_-1_container_9_zn5y62qzk64r-fill" data-item-order="-706257" transform="translate(673.90625, 719)"></g><g id="g-root-cp_-1_container_9_zn5y62qzk64r-stroke" data-item-order="-706257" transform="translate(673.90625, 719)"></g><g id="g-root-tx_requirem_zmjk8qqzfxts-fill" data-item-order="0" transform="translate(673.90625, 290)"><g id="tx_requirem_zmjk8qqzfxts-fill-merged" stroke="none" fill="#f4f4f4" fill-opacity="1"><g><text style="font: 15px Roboto, sans-serif; white-space: pre;" transform="translate(10, 28)" font-size="15px" font-family="Roboto, sans-serif"><tspan x="2" y="0" dominant-baseline="ideographic">Requirements Engineer </tspan><tspan x="2" y="18" dominant-baseline="ideographic">definiert Anforderungen</tspan></text></g></g></g><g id="g-root-tx_requirem_zmjk8qqzfxts-stroke" data-item-order="0" transform="translate(673.90625, 290)"></g><g id="g-root-tx_routerag_18gb58aqzfx8u-fill" data-item-order="0" transform="translate(65.65625, 281)"><g id="tx_routerag_18gb58aqzfx8u-fill-merged" stroke="none" fill="#f4f4f4" fill-opacity="1"><g><text style="font: 15px Roboto, sans-serif; white-space: pre;" transform="translate(138.25, 28)" font-size="15px" font-family="Roboto, sans-serif"><tspan x="-126.25" y="0" dominant-baseline="ideographic">Router-Agent leitet </tspan><tspan x="-62.91" y="18" dominant-baseline="ideographic">Anfragen</tspan></text></g></g></g><g id="g-root-tx_routerag_18gb58aqzfx8u-stroke" data-item-order="0" transform="translate(65.65625, 281)"></g><g id="g-root-tx_requirem_142d2d6qzfx1j-fill" data-item-order="0" transform="translate(673.90625, 242)"><g id="tx_requirem_142d2d6qzfx1j-fill-merged" stroke="none" fill="#f4f4f4" fill-opacity="1"><g><text style="font: 15px Roboto, sans-serif; white-space: pre;" transform="translate(10, 28)" font-size="15px" font-family="Roboto, sans-serif"><tspan x="2" y="0" dominant-baseline="ideographic">REQUIREMENTS </tspan><tspan x="2" y="18" dominant-baseline="ideographic">ENGINEER</tspan></text></g></g></g><g id="g-root-tx_requirem_142d2d6qzfx1j-stroke" data-item-order="0" transform="translate(673.90625, 242)"></g><g id="g-root-tx_wordpres_v4umuyqzfytr-fill" data-item-order="0" transform="translate(51.828125, 395)"><g id="tx_wordpres_v4umuyqzfytr-fill-merged" stroke="none" fill="#f4f4f4" fill-opacity="1"><g><text style="font: 15px Roboto, sans-serif; white-space: pre;" transform="translate(152.078125, 19)" font-size="15px" font-family="Roboto, sans-serif"><tspan x="-140.08" y="9" dominant-baseline="ideographic">WORDPRESS FORGE</tspan></text></g></g></g><g id="g-root-tx_wordpres_v4umuyqzfytr-stroke" data-item-order="0" transform="translate(51.828125, 395)"></g><g id="g-root-ic_2_1cxzzgaqzprlt-fill" data-item-order="0" transform="translate(295.90625, 398)"></g><g id="g-root-ic_2_1cxzzgaqzprlt-stroke" data-item-order="0" transform="translate(295.90625, 398)"><g id="ic_2_1cxzzgaqzprlt-stroke" fill="none" stroke-linecap="round" stroke-linejoin="round" stroke-miterlimit="4" stroke="#2c2c2c" stroke-width="1" stroke-opacity="1"><g><path d="M 25.842499 30.4125L 12.8875 30.4125M 35.162498 56.119999L 25.842499 30.4125M 17.715 30.4125L 30.487499 66.409996M 35.1325 30.4125L 44.419998 30.4125M 30.202501 67.037498L 40.892502 43.502499M 53.737503 56.110001L 44.419998 30.4125M 36.2925 30.4125L 49.065002 66.409996M 61.352501 37.287498C 60.936775 36.075424 60.296444 34.952511 59.464996 33.977501C 58.099525 32.872978 56.664944 31.856745 55.169998 30.934999C 54.550262 30.489742 54.017303 29.934755 53.597504 29.297501C 52.065002 26.8125 53.255001 21.450001 57.075001 21.442501C 63.575001 21.425001 65.894997 28.772499 61.574997 38.727501C 59.952503 42.477501 48.599998 67.442497 48.599998 67.442497M 68.75 40C 68.690948 52.629353 60.396748 63.741337 48.305729 67.389793C 36.21471 71.038246 23.158455 66.368744 16.123533 55.879997C 9.088613 45.391251 9.722524 31.539602 17.686054 21.737247C 25.649584 11.934892 39.077763 8.477433 50.785004 13.215"></path></g></g></g><g id="g-root-ic_logo_240u2qzy77o-fill" data-item-order="0" transform="translate(511.90625, 398)"></g><g id="g-root-ic_logo_240u2qzy77o-stroke" data-item-order="0" transform="translate(511.90625, 398)"><g id="ic_logo_240u2qzy77o-stroke" fill="none" stroke-linecap="round" stroke-linejoin="round" stroke-miterlimit="4" stroke="#2c2c2c" stroke-width="1" stroke-opacity="1"><g><path d="M 47.5 59.375L 23.75 20.625L 11.25 21.875L 25 49.375L 68.75 39.375L 61.25 30.625L 51.25 31.875L 66.25 51.875L 47.5 59.375Z"></path></g></g></g><g id="g-root-tx_laravelf_mb31veqzfzep-fill" data-item-order="0" transform="translate(673.90625, 401)"><g id="tx_laravelf_mb31veqzfzep-fill-merged" stroke="none" fill="#f4f4f4" fill-opacity="1"><g><text style="font: 15px Roboto, sans-serif; white-space: pre;" transform="translate(10, 19)" font-size="15px" font-family="Roboto, sans-serif"><tspan x="2" y="9" dominant-baseline="ideographic">LARAVEL FORGE</tspan></text></g></g></g><g id="g-root-tx_laravelf_mb31veqzfzep-stroke" data-item-order="0" transform="translate(673.90625, 401)"></g><g id="g-root-ic_code_m7c46yqzwsg0-fill" data-item-order="0" transform="translate(511.90625, 254)"></g><g id="g-root-ic_code_m7c46yqzwsg0-stroke" data-item-order="0" transform="translate(511.90625, 254)"><g id="ic_code_m7c46yqzwsg0-stroke" fill="none" stroke-linecap="round" stroke-linejoin="round" stroke-miterlimit="4" stroke="#2c2c2c" stroke-width="1" stroke-opacity="1"><g><path d="M 32.87505 20.218775L 32.87505 14.468775C 32.87505 12.968775 33.87505 11.968765 35.375 11.968765L 59.375 11.968765C 59.875 11.968765 60.625 12.218765 60.875 12.468765L 66.875 17.468775C 67.375 17.968775 67.875 18.718775 67.875 19.468775L 67.875 50.71875C 67.875 52.21875 66.875 53.21875 65.375 53.21875L 46.625 53.21875M 10 10M 42.875 22.468725L 39.125 26.218725L 42.875 29.968725M 10 10M 57.875 22.468725L 61.625 26.218725L 57.875 29.968725M 10 10M 47.875 31.2188L 52.875 19.9688M 43.875 68.03125C 41.625 61.53125 35.375 56.78125 28.12495 56.78125C 20.87495 56.78125 14.37495 61.53125 12.12494 68.03125M 27.875 34.281227L 27.875 26.781225M 14.12475 41.53125L 41.624752 41.53125M 17.62475 44.28125C 17.87475 49.78125 22.37475 54.28125 27.87475 54.28125C 33.624748 54.28125 38.124748 49.78125 38.124748 44.03125L 38.124748 39.53125C 38.124748 33.781227 33.624748 29.281225 27.87475 29.281225C 22.37475 29.281225 17.87475 33.781227 17.62475 39.28125L 17.62475 44.28125Z"></path></g></g></g><g id="g-root-tx_wordpres_qp14qiqzfzm0-fill" data-item-order="0" transform="translate(65.859375, 425)"><g id="tx_wordpres_qp14qiqzfzm0-fill-merged" stroke="none" fill="#f4f4f4" fill-opacity="1"><g><text style="font: 15px Roboto, sans-serif; white-space: pre;" transform="translate(138.046875, 28)" font-size="15px" font-family="Roboto, sans-serif"><tspan x="-126.05" y="0" dominant-baseline="ideographic">WordPress-Projekt </tspan><tspan x="-59.19" y="18" dominant-baseline="ideographic">erstellen</tspan></text></g></g></g><g id="g-root-tx_wordpres_qp14qiqzfzm0-stroke" data-item-order="0" transform="translate(65.859375, 425)"></g><g id="g-root-ic_prev_1uoniuyqzof0l-fill" data-item-order="0" transform="translate(295.90625, 254)"></g><g id="g-root-ic_prev_1uoniuyqzof0l-stroke" data-item-order="0" transform="translate(295.90625, 254)"><g id="ic_prev_1uoniuyqzof0l-stroke" fill="none" stroke-linecap="round" stroke-linejoin="round" stroke-miterlimit="4" stroke="#2c2c2c" stroke-width="1" stroke-opacity="1"><g><path d="M 18.125 24.375C 21.576775 24.375 24.375 21.576775 24.375 18.125C 24.375 14.673225 21.576775 11.875 18.125 11.875C 14.673225 11.875 11.875 14.673225 11.875 18.125C 11.875 21.576775 14.673225 24.375 18.125 24.375ZM 18.125151 68.125C 21.576925 68.125 24.375151 65.326752 24.375151 61.875C 24.375151 58.423252 21.576925 55.625 18.125151 55.625C 14.673375 55.625 11.875153 58.423252 11.875153 61.875C 11.875153 65.326752 14.673375 68.125 18.125151 68.125ZM 37.375 46.25C 40.826752 46.25 43.625 43.451752 43.625 40C 43.625 36.548248 40.826752 33.75 37.375 33.75C 33.923248 33.75 31.125027 36.548248 31.125027 40C 31.125027 43.451752 33.923248 46.25 37.375 46.25ZM 33.625027 17.751474L 38.875 23.75145L 53.597496 23.75145M 10 10M 22.330173 22.738026L 33.145874 35.400501M 10 10M 22.32955 57.263752L 33.1446 44.602001M 10 10M 48.625 18.75L 53.625 23.75L 48.625 28.75M 51.124748 40L 68.124756 40M 10 10M 63.124752 35L 68.124756 40L 63.124752 45M 10 10M 33.625027 62.25L 38.89275 56.25L 53.625 56.25M 10 10M 48.625 61.25L 53.625 56.25L 48.625 51.25"></path></g></g></g><g id="g-root-tx_laravelp_9090l6qzfxtu-fill" data-item-order="0" transform="translate(673.90625, 431)"><g id="tx_laravelp_9090l6qzfxtu-fill-merged" stroke="none" fill="#f4f4f4" fill-opacity="1"><g><text style="font: 15px Roboto, sans-serif; white-space: pre;" transform="translate(10, 19)" font-size="15px" font-family="Roboto, sans-serif"><tspan x="2" y="9" dominant-baseline="ideographic">Laravel-Projekt erstellen</tspan></text></g></g></g><g id="g-root-tx_laravelp_9090l6qzfxtu-stroke" data-item-order="0" transform="translate(673.90625, 431)"></g><g id="g-root-tx_routerag_1lr56iiqzfytp-fill" data-item-order="0" transform="translate(82.28125, 251)"><g id="tx_routerag_1lr56iiqzfytp-fill-merged" stroke="none" fill="#f4f4f4" fill-opacity="1"><g><text style="font: 15px Roboto, sans-serif; white-space: pre;" transform="translate(121.625, 19)" font-size="15px" font-family="Roboto, sans-serif"><tspan x="-109.63" y="9" dominant-baseline="ideographic">ROUTER AGENT</tspan></text></g></g></g><g id="g-root-tx_routerag_1lr56iiqzfytp-stroke" data-item-order="0" transform="translate(82.28125, 251)"></g><g id="g-root-tx_masterar_18hk3eiqzfzf2-fill" data-item-order="0" transform="translate(673.90625, 137)"><g id="tx_masterar_18hk3eiqzfzf2-fill-merged" stroke="none" fill="#f4f4f4" fill-opacity="1"><g><text style="font: 15px Roboto, sans-serif; white-space: pre;" transform="translate(10, 28)" font-size="15px" font-family="Roboto, sans-serif"><tspan x="2" y="0" dominant-baseline="ideographic">Masterarchitekt entwirft </tspan><tspan x="2" y="18" dominant-baseline="ideographic">die Pipeline</tspan></text></g></g></g><g id="g-root-tx_masterar_18hk3eiqzfzf2-stroke" data-item-order="0" transform="translate(673.90625, 137)"></g><g id="g-root-tx_stylewor_m9u3p6qzfx8h-fill" data-item-order="0" transform="translate(82.546875, 539)"><g id="tx_stylewor_m9u3p6qzfx8h-fill-merged" stroke="none" fill="#f4f4f4" fill-opacity="1"><g><text style="font: 15px Roboto, sans-serif; white-space: pre;" transform="translate(121.359375, 19)" font-size="15px" font-family="Roboto, sans-serif"><tspan x="-109.36" y="9" dominant-baseline="ideographic">STYLE WORKER</tspan></text></g></g></g><g id="g-root-tx_stylewor_m9u3p6qzfx8h-stroke" data-item-order="0" transform="translate(82.546875, 539)"></g><g id="g-root-ic_art_dl288qqzprt6-fill" data-item-order="0" transform="translate(295.90625, 542)"></g><g id="g-root-ic_art_dl288qqzprt6-stroke" data-item-order="0" transform="translate(295.90625, 542)"><g id="ic_art_dl288qqzprt6-stroke" fill="none" stroke-linecap="round" stroke-linejoin="round" stroke-miterlimit="4" stroke="#2c2c2c" stroke-width="1" stroke-opacity="1"><g><path d="M 57.5 20.307501C 55.324322 19.135098 52.888924 18.528183 50.4175 18.5425C 43.305 18.5425 37.537502 23.3475 37.537502 29.275C 37.787586 33.910751 40.947788 37.878815 45.41 39.16C 47.237503 39.802498 48.75 39.279999 49.807503 36.895C 50.29266 35.742546 51.288826 34.883274 52.5 34.572502M 58.75 35L 52.029999 48.440002M 57.309998 30.68C 56.625591 32.249226 57.28875 34.079647 58.819462 34.846333C 60.350174 35.613018 62.213196 35.047886 63.060001 33.559998C 65.001289 30.603008 64.377914 26.65501 61.620003 24.440001C 62.110001 28.279999 59.23 26.84 57.309998 30.68ZM 44.1675 30.940001C 44.333462 30.939331 44.492821 31.004965 44.61018 31.12232C 44.727531 31.239677 44.793167 31.399036 44.7925 31.564999M 43.5425 31.565001C 43.5425 31.219822 43.822323 30.940001 44.1675 30.940001M 44.1675 32.190002C 43.822323 32.190002 43.5425 31.910179 43.5425 31.565001M 44.7925 31.565001C 44.793167 31.730965 44.727531 31.890324 44.61018 32.007679C 44.492821 32.125034 44.333462 32.190666 44.1675 32.189999M 46.0425 24.690001C 46.208462 24.689333 46.367821 24.754965 46.48518 24.87232C 46.602531 24.989676 46.668167 25.149036 46.6675 25.315001M 45.4175 25.315001C 45.4175 24.969822 45.697323 24.690001 46.0425 24.690001M 46.0425 25.940001C 45.697323 25.940001 45.4175 25.660177 45.4175 25.315001M 46.6675 25.315001C 46.668167 25.480965 46.602531 25.640324 46.48518 25.757679C 46.367821 25.875034 46.208462 25.940668 46.0425 25.940001M 52.2925 23.440001C 52.458462 23.439333 52.617821 23.504965 52.735176 23.62232C 52.852535 23.739677 52.918167 23.899036 52.9175 24.065001M 51.6675 24.065001C 51.6675 23.719822 51.947323 23.440001 52.2925 23.440001M 52.2925 24.690001C 51.947323 24.690001 51.6675 24.410177 51.6675 24.065001M 52.9175 24.065001C 52.918167 24.230965 52.852535 24.390324 52.735176 24.507679C 52.617821 24.625034 52.458462 24.690668 52.2925 24.690001M 16.25 53.75L 16.25 46.25M 31.25 53.75L 31.25 46.25M 16.25 53.75L 31.25 53.75M 23.75 68.75L 23.75 58.75M 23.75 32.5L 23.75 45M 30 68.75L 31.25 53.75L 36.25 53.75L 36.25 45C 36.25 38.096443 30.653561 32.5 23.75 32.5C 16.846441 32.5 11.25 38.096443 11.25 45L 11.25 53.75L 16.25 53.75L 17.5 68.75ZM 15 20C 15.000001 24.832493 18.917509 28.75 23.750002 28.75C 28.582493 28.75 32.5 24.832493 32.5 20C 32.5 15.167509 28.582493 11.25 23.750002 11.25C 18.917509 11.25 15.000001 15.167509 15.000001 20ZM 16 15.945C 18.775038 18.553549 22.441414 20.004004 26.250002 20.000002C 28.370884 20.002968 30.468138 19.554714 32.4025 18.684999M 43.75 53.75L 63.75 53.75C 66.511429 53.75 68.75 51.511425 68.75 48.75L 68.75 16.25C 68.75 13.488576 66.511429 11.25 63.75 11.25L 35 11.25"></path></g></g></g><g id="g-root-ic_1_18gxj5mqzy70l-fill" data-item-order="0" transform="translate(511.90625, 542)"></g><g id="g-root-ic_1_18gxj5mqzy70l-stroke" data-item-order="0" transform="translate(511.90625, 542)"><g id="ic_1_18gxj5mqzy70l-stroke" fill="none" stroke-linecap="round" stroke-linejoin="round" stroke-miterlimit="4" stroke="#2c2c2c" stroke-width="1" stroke-opacity="1"><g><path d="M 31.25 68.75L 13.75 68.75C 12.369288 68.75 11.25 67.630707 11.25 66.25L 11.25 13.75C 11.25 12.369288 12.369288 11.25 13.75 11.25L 46.974998 11.25C 47.639507 11.246158 48.278202 11.507033 48.75 11.975L 58.024998 21.25C 58.492966 21.721798 58.753845 22.360493 58.75 23.025L 58.75 33.75M 26.25 27.5L 18.75 35L 26.25 42.5M 33.75 27.5L 41.25 35L 33.75 42.5M 57.724998 47.850002L 65.324997 51.25L 68.75 43.575001M 38.299999 48.175003C 40.417667 41.989952 46.552864 38.110832 53.048481 38.849926C 59.544106 39.58902 64.650986 44.747307 65.325005 51.25M 45.950001 59.650002L 38.349998 56.25L 34.924999 63.924999M 65.375 59.324997C 63.257332 65.510048 57.122139 69.389175 50.626522 68.650078C 44.130901 67.91098 39.024014 62.752693 38.349998 56.25"></path></g></g></g><g id="g-root-tx_iteratio_4m0caqzfymj-fill" data-item-order="0" transform="translate(673.90625, 539)"><g id="tx_iteratio_4m0caqzfymj-fill-merged" stroke="none" fill="#f4f4f4" fill-opacity="1"><g><text style="font: 15px Roboto, sans-serif; white-space: pre;" transform="translate(10, 19)" font-size="15px" font-family="Roboto, sans-serif"><tspan x="2" y="9" dominant-baseline="ideographic">ITERATION AGENT</tspan></text></g></g></g><g id="g-root-tx_iteratio_4m0caqzfymj-stroke" data-item-order="0" transform="translate(673.90625, 539)"></g><g id="g-root-tx_benutzer_1hmwqqzfxfw-fill" data-item-order="0" transform="translate(46.875, 137)"><g id="tx_benutzer_1hmwqqzfxfw-fill-merged" stroke="none" fill="#f4f4f4" fill-opacity="1"><g><text style="font: 15px Roboto, sans-serif; white-space: pre;" transform="translate(157.03125, 28)" font-size="15px" font-family="Roboto, sans-serif"><tspan x="-145.03" y="0" dominant-baseline="ideographic">Benutzerinput für das </tspan><tspan x="-49.02" y="18" dominant-baseline="ideographic">Projekt</tspan></text></g></g></g><g id="g-root-tx_benutzer_1hmwqqzfxfw-stroke" data-item-order="0" transform="translate(46.875, 137)"></g><g id="g-root-tx_validier_18jfinuqzfyfi-fill" data-item-order="0" transform="translate(673.90625, 719)"><g id="tx_validier_18jfinuqzfyfi-fill-merged" stroke="none" fill="#f4f4f4" fill-opacity="1"><g><text style="font: 15px Roboto, sans-serif; white-space: pre;" transform="translate(10, 19)" font-size="15px" font-family="Roboto, sans-serif"><tspan x="2" y="9" dominant-baseline="ideographic">Validierungsfix für Fehler</tspan></text></g></g></g><g id="g-root-tx_validier_18jfinuqzfyfi-stroke" data-item-order="0" transform="translate(673.90625, 719)"></g><g id="g-root-tx_stylewor_de73gaqzfy16-fill" data-item-order="0" transform="translate(15.625, 569)"><g id="tx_stylewor_de73gaqzfy16-fill-merged" stroke="none" fill="#f4f4f4" fill-opacity="1"><g><text style="font: 15px Roboto, sans-serif; white-space: pre;" transform="translate(188.28125, 28)" font-size="15px" font-family="Roboto, sans-serif"><tspan x="-176.28" y="0" dominant-baseline="ideographic">Style-Worker gestaltet das </tspan><tspan x="-49.02" y="18" dominant-baseline="ideographic">Projekt</tspan></text></g></g></g><g id="g-root-tx_stylewor_de73gaqzfy16-stroke" data-item-order="0" transform="translate(15.625, 569)"></g><g id="g-root-tx_iteratio_1upwk6yqzfz7o-fill" data-item-order="0" transform="translate(673.90625, 569)"><g id="tx_iteratio_1upwk6yqzfz7o-fill-merged" stroke="none" fill="#f4f4f4" fill-opacity="1"><g><text style="font: 15px Roboto, sans-serif; white-space: pre;" transform="translate(10, 28)" font-size="15px" font-family="Roboto, sans-serif"><tspan x="2" y="0" dominant-baseline="ideographic">Iterationsagent verfeinert </tspan><tspan x="2" y="18" dominant-baseline="ideographic">das Projekt</tspan></text></g></g></g><g id="g-root-tx_iteratio_1upwk6yqzfz7o-stroke" data-item-order="0" transform="translate(673.90625, 569)"></g><g id="g-root-ic_pers_8xr12yqzu1hr-fill" data-item-order="0" transform="translate(511.90625, 110)"></g><g id="g-root-ic_pers_8xr12yqzu1hr-stroke" data-item-order="0" transform="translate(511.90625, 110)"><g id="ic_pers_8xr12yqzu1hr-stroke" fill="none" stroke-linecap="round" stroke-linejoin="round" stroke-miterlimit="4" stroke="#2c2c2c" stroke-width="1" stroke-opacity="1"><g><path d="M 63.500252 12.000085C 66.000252 12.000085 68.000252 14.000074 68.000252 16.500074L 68.000252 49C 68.000252 46.5 66.000252 44.5 63.500252 44.5L 61.500248 44.5C 60.000248 44.5 59.000248 43.5 59.000248 42L 59.000248 14.500075C 59.000248 13.000075 60.000248 12.000085 61.500248 12.000085L 63.500252 12.000085ZM 68.000252 49C 68.000252 51.5 66.000252 53.5 63.500252 53.5L 44.250252 53.5M 10 10M 59.000248 16.500099L 33.000175 16.500099C 31.500175 16.500099 30.500175 17.500099 30.500175 19.000099L 30.500175 20.750099M 27.749676 54.25C 22.249676 54.25 17.749701 49.75 17.499701 44.25L 17.499701 39.25C 17.749701 33.749928 22.249676 29.249924 27.749676 29.249924C 33.499702 29.249924 37.999748 33.749928 37.999748 39.5L 37.999748 44C 37.999748 49.75 33.499676 54.25 27.749676 54.25ZM 27.74995 34.249924L 27.74995 26.749924M 13.999625 41.5L 41.499752 41.5M 43.749748 68C 41.499752 61.5 35.249752 56.75 27.999825 56.75C 20.749825 56.75 14.249825 61.5 11.999818 68"></path></g></g></g><g id="g-root-ic_2_hwiereqzk5c5-fill" data-item-order="0" transform="translate(295.90625, 110)"></g><g id="g-root-ic_2_hwiereqzk5c5-stroke" data-item-order="0" transform="translate(295.90625, 110)"><g id="ic_2_hwiereqzk5c5-stroke" fill="none" stroke-linecap="round" stroke-linejoin="round" stroke-miterlimit="4" stroke="#2c2c2c" stroke-width="1" stroke-opacity="1"><g><path d="M 36.500248 29.375L 19.00025 29.375C 17.00025 29.375 15.25025 27.625 15.25025 25.625L 15.25025 15.625C 15.25025 13.625 17.00025 11.875 19.00025 11.875L 36.500248 11.875C 38.500248 11.875 40.250248 13.625 40.250248 15.625L 40.250248 25.625C 40.250248 27.625 38.750252 29.375 36.500248 29.375ZM 10 10M 25.250324 29.375L 23.500374 37.375M 10 10M 30.250248 29.375L 32.250298 37.375M 10 10M 18.625126 68.124756L 15.750125 44.375M 38.374752 37.375L 11.875 37.375L 11.875 44.374748L 35.625 44.374748M 11.875 68.125L 43.625 68.125M 10 10M 40.375248 52.63575L 38.375248 68.124756M 56.875 26.875C 61.01725 26.875 64.375 23.517124 64.375 19.375C 64.375 15.232875 61.01725 11.875 56.875 11.875C 52.73275 11.875 49.375 15.232875 49.375 19.375C 49.375 23.517124 52.73275 26.875 56.875 26.875ZM 10 10M 62.375 68.125L 64.375 49.375C 66.375 49.375 68.125 47.625 68.125 45.625L 68.125 41.875C 68.125 35.625 63.125 30.625 56.875 30.625C 50.625 30.625 45.625 35.625 45.625 41.875L 45.625 45.625C 45.625 47.625 47.375 49.375 49.375 49.375L 51.375 68.125L 62.375 68.125Z"></path></g></g></g><g id="g-root-tx_contentw_2ql2yqzfzm3-fill" data-item-order="0" transform="translate(58.9375, 683)"><g id="tx_contentw_2ql2yqzfzm3-fill-merged" stroke="none" fill="#f4f4f4" fill-opacity="1"><g><text style="font: 15px Roboto, sans-serif; white-space: pre;" transform="translate(144.96875, 19)" font-size="15px" font-family="Roboto, sans-serif"><tspan x="-132.97" y="9" dominant-baseline="ideographic">CONTENT WORKER</tspan></text></g></g></g><g id="g-root-tx_contentw_2ql2yqzfzm3-stroke" data-item-order="0" transform="translate(58.9375, 683)"></g><g id="g-root-ic_penc_958q4aqzr5za-fill" data-item-order="0" transform="translate(295.90625, 686)"></g><g id="g-root-ic_penc_958q4aqzr5za-stroke" data-item-order="0" transform="translate(295.90625, 686)"><g id="ic_penc_958q4aqzr5za-stroke" fill="none" stroke-linecap="round" stroke-linejoin="round" stroke-miterlimit="4" stroke="#2c2c2c" stroke-width="1" stroke-opacity="1"><g><path d="M 43.1325 61.574997C 37.710758 64.647446 31.11166 64.804749 25.549686 61.994118C 19.987713 59.183487 16.199959 53.777397 15.4575 47.589996M 22.955 39.422501L 28.182501 39.422501C 28.182501 39.422501 30.682503 39.422501 30.682503 41.922501L 30.682503 45.105C 30.682503 45.105 30.682503 47.605 28.182501 47.605L 22.955 47.605C 22.955 47.605 20.455 47.605 20.455 45.105L 20.455 41.922501C 20.455 41.922501 20.455 39.422501 22.955 39.422501M 39.317501 39.422501L 44.545002 39.422501C 44.545002 39.422501 47.045002 39.422501 47.045002 41.922501L 47.045002 45.105C 47.045002 45.105 47.045002 47.605 44.545002 47.605L 39.317501 47.605C 39.317501 47.605 36.817501 47.605 36.817501 45.105L 36.817501 41.922501C 36.817501 41.922501 36.817501 39.422501 39.317501 39.422501M 15.34 31.772499C 24.425171 26.677277 35.772427 28.112803 43.302502 35.309998M 15.34 47.605C 13.080751 47.603615 11.25 45.771748 11.25 43.512497L 11.25 41.467499C 11.25 40.338078 12.165578 39.422501 13.295 39.422501L 15.34 39.422501M 30.682499 45.557499C 30.682499 43.863369 32.055866 42.490002 33.75 42.490002C 35.444134 42.490002 36.817501 43.863369 36.817501 45.557503M 38.09 52.965004C 35.693127 55.362019 31.806871 55.362019 29.41 52.964996M 52.119999 39.375C 54.562805 37.600323 56.07906 34.822056 56.25 31.807499C 56.25 23.9 47.907501 15.445 32.794998 15.445C 19.18 15.445 13.440001 22.307499 12.4375 29.445C 12.354478 30.03544 12.532955 30.63274 12.926301 31.080837C 13.319647 31.528933 13.888781 31.78331 14.485 31.7775L 15.34 31.7775M 28.192499 28.7775C 28.192499 28.7775 26.030001 43.512501 15.34 39.422501M 33.75 15.445L 33.75 11.41M 14.7175 31.779999L 14.7175 39.422501M 53.837502 67.07L 46.25 68.590004L 47.767502 61.002499L 61.422501 47.3475C 63.097908 45.671799 65.814583 45.671799 67.489998 47.347496L 67.489998 47.3475C 69.165413 49.022049 69.165413 51.737946 67.489998 53.412498L 67.489998 53.412498ZM 52.16 47.605C 54.419247 47.603615 56.249996 45.771748 56.249996 43.512497L 56.25 41.467499C 56.25 40.338078 55.334427 39.422501 54.205002 39.422501L 52.16 39.422501"></path></g></g></g><g id="g-root-ic_chec_8crp6qzzm69-fill" data-item-order="0" transform="translate(511.90625, 686)"></g><g id="g-root-ic_chec_8crp6qzzm69-stroke" data-item-order="0" transform="translate(511.90625, 686)"><g id="ic_chec_8crp6qzzm69-stroke" fill="none" stroke-linecap="round" stroke-linejoin="round" stroke-miterlimit="4" stroke="#2c2c2c" stroke-width="1" stroke-opacity="1"><g><path d="M 38.75 53.75C 38.750004 62.034271 45.465729 68.75 53.75 68.75C 62.034271 68.75 68.75 62.034271 68.75 53.75C 68.75 45.465729 62.034271 38.750004 53.75 38.750004C 45.465729 38.750004 38.750004 45.465729 38.750004 53.75ZM 60.434998 49.387501L 53.172497 59.072498C 52.845757 59.507057 52.346672 59.778637 51.804337 59.817001C 51.261997 59.855362 50.729656 59.656734 50.344997 59.272499L 46.594997 55.522499M 36.25 68.75L 13.75 68.75C 12.369288 68.75 11.25 67.630707 11.25 66.25L 11.25 13.75C 11.25 12.369288 12.369288 11.25 13.75 11.25L 46.982502 11.25C 47.645489 11.250141 48.281269 11.513626 48.75 11.9825L 58.017502 21.25C 58.486374 21.718733 58.749855 22.354513 58.75 23.0175L 58.75 31.25"></path></g></g></g><g id="g-root-tx_validati_1lu9jy2qzg00d-fill" data-item-order="0" transform="translate(673.90625, 689)"><g id="tx_validati_1lu9jy2qzg00d-fill-merged" stroke="none" fill="#f4f4f4" fill-opacity="1"><g><text style="font: 15px Roboto, sans-serif; white-space: pre;" transform="translate(10, 19)" font-size="15px" font-family="Roboto, sans-serif"><tspan x="2" y="9" dominant-baseline="ideographic">VALIDATION FIX</tspan></text></g></g></g><g id="g-root-tx_validati_1lu9jy2qzg00d-stroke" data-item-order="0" transform="translate(673.90625, 689)"></g><g id="g-root-tx_userinpu_dcbo6yqzfz0r-fill" data-item-order="0" transform="translate(106.859375, 107)"><g id="tx_userinpu_dcbo6yqzfz0r-fill-merged" stroke="none" fill="#f4f4f4" fill-opacity="1"><g><text style="font: 15px Roboto, sans-serif; white-space: pre;" transform="translate(97.046875, 19)" font-size="15px" font-family="Roboto, sans-serif"><tspan x="-85.05" y="9" dominant-baseline="ideographic">USER INPUT</tspan></text></g></g></g><g id="g-root-tx_userinpu_dcbo6yqzfz0r-stroke" data-item-order="0" transform="translate(106.859375, 107)"></g><g id="g-root-tx_contentw_1uonm0qqzfx1g-fill" data-item-order="0" transform="translate(36.328125, 713)"><g id="tx_contentw_1uonm0qqzfx1g-fill-merged" stroke="none" fill="#f4f4f4" fill-opacity="1"><g><text style="font: 15px Roboto, sans-serif; white-space: pre;" transform="translate(167.578125, 28)" font-size="15px" font-family="Roboto, sans-serif"><tspan x="-155.58" y="0" dominant-baseline="ideographic">Content-Worker erstellt </tspan><tspan x="-47.3" y="18" dominant-baseline="ideographic">Inhalte</tspan></text></g></g></g><g id="g-root-tx_contentw_1uonm0qqzfx1g-stroke" data-item-order="0" transform="translate(36.328125, 713)"></g><g id="g-root-tx_kiagente_zn5y62qzk64s-fill" data-item-order="0" transform="translate(257.828125, 38)"><g id="tx_kiagente_zn5y62qzk64s-fill-merged" stroke="none" fill="#f4f4f4" fill-opacity="1"><g><text style="font: bold 25px Roboto, sans-serif; white-space: pre;" transform="translate(186.078125, 25)" font-weight="bold" font-size="25px" font-family="Roboto, sans-serif"><tspan x="-174.08" y="15" dominant-baseline="ideographic">KI-Agenten-Pipeline für Craftly</tspan></text></g></g></g><g id="g-root-tx_kiagente_zn5y62qzk64s-stroke" data-item-order="0" transform="translate(257.828125, 38)"></g><g id="g-root-tx_masterar_1lt0lruqzfxu5-fill" data-item-order="0" transform="translate(673.90625, 107)"><g id="tx_masterar_1lt0lruqzfxu5-fill-merged" stroke="none" fill="#f4f4f4" fill-opacity="1"><g><text style="font: 15px Roboto, sans-serif; white-space: pre;" transform="translate(10, 19)" font-size="15px" font-family="Roboto, sans-serif"><tspan x="2" y="9" dominant-baseline="ideographic">MASTER ARCHITECT</tspan></text></g></g></g><g id="g-root-tx_masterar_1lt0lruqzfxu5-stroke" data-item-order="0" transform="translate(673.90625, 107)"></g></g></g><path id="w1d2eczesdtczq" d="M65.283 12.757a.35.35 0 0 0 .584.157l5.203-5.141-6.183 3.523.396 1.461zm-2.216-11.7a.35.35 0 0 0-.522.305v3.111l3.276-1.868-2.754-1.548zm3.728 2.105l-4.25 2.421v2.445l6.391-3.644-2.141-1.222zm4.708 3.303a.35.35 0 0 0 0-.609l-1.592-.9-7.365 4.199v1.782a.35.35 0 0 0 .523.305l8.435-4.777z M44.542 2.513c0-.433.355-.783.792-.783s.792.35.792.783-.355.783-.792.783-.792-.35-.792-.783zm59.171 0c0-.433.355-.783.792-.783s.792.35.792.783-.355.783-.792.783-.792-.35-.792-.783zm-85.951 7.636h-1.27v-.487c-.276.201-.864.609-1.881.609-1.202 0-2.274-.794-2.137-2.078.118-1.106 1.153-1.584 1.848-1.727l2.17-.345c0-.539-.29-.956-1.064-1.006s-1.21.305-1.571 1.017l-1.124-.605c1.218-2.631 5.029-1.764 5.029.414v4.207zm-1.27-2.86c.006.396-.062 1.112-.819 1.59-.587.37-1.841.299-1.903-.395-.049-.555.461-.791.906-.898l1.816-.297zm72.662 2.86h-1.27v-.487c-.276.201-.864.609-1.881.609-1.202 0-2.274-.794-2.137-2.078.118-1.106 1.153-1.584 1.848-1.727l2.17-.345c0-.539-.29-.956-1.064-1.006s-1.21.305-1.571 1.017l-1.124-.605c1.218-2.631 5.029-1.764 5.029.414v4.207zm-1.27-2.86c.006.396-.062 1.112-.82 1.59-.587.37-1.841.299-1.903-.395-.049-.555.461-.791.906-.898l1.816-.297zM99.096 10.149H97.85v-8.45h1.246v4.895l2.68-2.559h1.738l-2.633 2.535 2.715 3.578h-1.556l-2.077-2.707-.867.844v1.863zm6.053-6.114h-1.255v6.113h1.255V4.035zm-59.2 0h-1.255v6.113h1.255V4.035zm5.584 6.113V1.697h1.255v2.695c.361-.346 1-.485 1.47-.485 1.452 0 2.477 1.082 2.457 2.448v3.792h-1.27v-3.68c0-.408-.214-1.339-1.315-1.339-.968 0-1.342.756-1.342 1.339v3.681h-1.255zm-4.76-4.894V4.039h.621a.45.45 0 0 0 .45-.45v-.855h1.251v1.305h1.309v1.215h-1.309v3.109c0 .293.105.664.648.664.365 0 .531-.035.736-.07v1.137s-.361.113-.857.113c-1.398 0-1.777-1.051-1.777-1.788V5.254h-1.071zM36.528 4.039h-1.394l2.191 6.106h1.125l1.234-3.918 1.238 3.918h1.129l2.188-6.106h-1.383l-1.359 3.93-1.256-3.93h-1.124l-1.242 3.957-1.348-3.957zM26.212 7.141c-.02 1.566 1.187 3.129 3.223 3.129 1.566 0 2.383-.918 2.734-1.719L31.172 8c-.315.399-.801 1.094-1.738 1.094-1.145 0-1.825-.781-1.891-1.52h4.625c.074-.284.148-.995-.03-1.559-.336-1.064-1.221-2.102-2.839-2.102s-3.088 1.152-3.088 3.227zm1.363-.75h3.348c-.055-.43-.566-1.301-1.623-1.301a1.79 1.79 0 0 0-1.725 1.301zm-8.758.75c.038 1.758 1.277 3.133 3.145 3.133 1.074 0 1.723-.477 1.961-.672v.547h1.242V1.703h-1.258v2.888c-.414-.36-1.062-.68-1.93-.68-1.91 0-3.198 1.473-3.16 3.23zm1.309-.08c0 1.119.723 1.978 1.836 1.978a1.88 1.88 0 0 0 1.94-1.904c0-1.371-1.011-1.99-1.972-1.99s-1.805.798-1.805 1.916zm76.683-.028C96.771 5.275 95.532 3.9 93.664 3.9c-1.074 0-1.723.477-1.961.672v-.547h-1.242v8.22h1.258V9.583c.414.36 1.063.68 1.93.68 1.91 0 3.198-1.473 3.16-3.23zm-1.309.08c0-1.119-.723-1.978-1.836-1.978a1.88 1.88 0 0 0-1.94 1.904c0 1.371 1.011 1.99 1.972 1.99S95.5 8.231 95.5 7.113zM106.441 10.173V4.036h1.254v.382c.361-.346 1-.485 1.47-.485 1.452 0 2.477 1.082 2.457 2.448v3.792h-1.27V6.492c0-.408-.214-1.339-1.315-1.339-.969 0-1.342.756-1.342 1.339v3.681h-1.254zm-30.383-.021V1.824h1.084l4.215 5.777V1.824h1.32v8.328h-1.094l-4.207-5.796v5.796h-1.319zM5.24 10.149H4V2.377h1.014l2.664 3.597 2.654-3.592h1.03v7.766h-1.256V4.762L7.678 8.068 5.24 4.742v5.407z" transform="translate(747.671875, 891.5)" fill="#ababab88" stroke="none"></path></svg>