<?xml version="1.0" standalone="no"?>
<!DOCTYPE svg PUBLIC "-//W3C//DTD SVG 1.1//EN" "http://www.w3.org/Graphics/SVG/1.1/DTD/svg11.dtd" >
<svg xmlns="http://www.w3.org/2000/svg">
<metadata>Generated by IcoMoon</metadata>
<defs>
<font id="icomoon" horiz-adv-x="1024">
<font-face units-per-em="1024" ascent="960" descent="-64" />
<missing-glyph horiz-adv-x="1024" />
<glyph unicode="&#x20;" horiz-adv-x="512" d="" />
<glyph unicode="&#xe900;" glyph-name="x" d="M225.835 652.502l225.835-225.835-225.835-225.835c-16.683-16.683-16.683-43.691 0-60.331s43.691-16.683 60.331 0l225.835 225.835 225.835-225.835c16.683-16.683 43.691-16.683 60.331 0s16.683 43.691 0 60.331l-225.835 225.835 225.835 225.835c16.683 16.683 16.683 43.691 0 60.331s-43.691 16.683-60.331 0l-225.835-225.835-225.835 225.835c-16.683 16.683-43.691 16.683-60.331 0s-16.683-43.691 0-60.331z" />
<glyph unicode="&#xe901;" glyph-name="keyboard_arrow_down" d="M316 572.667l196-196 196 196 60-60-256-256-256 256z" />
<glyph unicode="&#xe902;" glyph-name="keyboard_arrow_left" d="M658 230.667l-60-60-256 256 256 256 60-60-196-196z" />
<glyph unicode="&#xe903;" glyph-name="folder" d="M64 544v192.262c0 17.168 14.208 31.738 31.736 31.738h333.065l62.719-128h404.385c17.573 0 32.095-14.339 32.095-32.028v-63.972h-864zM64 512h864v-351.972c0-17.8-14.226-32.028-31.775-32.028h-800.45c-17.499 0-31.775 14.209-31.775 31.738v352.262zM512 672l-64 128h-351.912c-35.395 0-64.088-28.47-64.088-63.717v-576.566c0-35.19 28.791-63.717 63.785-63.717h800.43c35.228 0 63.785 28.564 63.785 63.843v448.314c0 35.259-28.706 63.843-64.187 63.843h-383.813z" />
<glyph unicode="&#xe904;" glyph-name="-garbage, delete, remove, bin, uninstall" d="M672 64c17.696 0 32 14.304 32 32v448c0 17.696-14.304 32-32 32s-32-14.304-32-32v-448c0-17.696 14.304-32 32-32zM352 64c17.664 0 32 14.304 32 32v448c0 17.696-14.336 32-32 32s-32-14.304-32-32v-448c0-17.696 14.336-32 32-32zM928 768h-128v64c0 70.688-57.312 128-128 128h-320c-70.688 0-128-57.312-128-128v-64h-128l-96-96c0-17.696 14.336-32 32-32h96v-640c0-35.328 28.672-64 64-64h640c35.328 0 64 28.672 64 64v640h96c17.696 0 32 14.304 32 32l-96 96zM320 832c0 35.328 28.672 64 64 64h256c35.328 0 64-28.672 64-64v-64h-384v64zM832 32c0-17.696-14.304-32-32-32h-576c-17.664 0-32 14.304-32 32v608h640v-608zM512 64c17.696 0 32 14.304 32 32v448c0 17.696-14.304 32-32 32s-32-14.304-32-32v-448c0-17.696 14.304-32 32-32z" />
<glyph unicode="&#xe905;" glyph-name="pencil" d="M864 960c88.364 0 160-71.634 160-160 0-36.020-11.91-69.258-32-96l-64-64-224 224 64 64c26.742 20.090 59.978 32 96 32zM64 224l-64-288 288 64 592 592-224 224-592-592zM715.578 596.422l-448-448-55.156 55.156 448 448 55.156-55.156z" />
<glyph unicode="&#xe906;" glyph-name="fullscreen" d="M598 724.667h212v-212h-84v128h-128v84zM726 212.667v128h84v-212h-212v84h128zM214 512.667v212h212v-84h-128v-128h-84zM298 340.667v-128h128v-84h-212v212h84z" />
<glyph unicode="&#xe907;" glyph-name="school" d="M496.125 859.75l-448-256c-9.667-5.628-16.061-15.942-16.061-27.75s6.394-22.121 15.909-27.668l0.152-0.082 448-256c4.56-2.65 10.035-4.215 15.875-4.215s11.315 1.564 16.029 4.297l-0.154-0.082 448 256c9.667 5.628 16.061 15.942 16.061 27.75s-6.394 22.121-15.909 27.668l-0.152 0.082-448 256c-4.56 2.65-10.035 4.215-15.875 4.215s-11.315-1.564-16.029-4.297l0.154 0.082zM512 795.125l383.5-219.125-383.5-219.125-383.5 219.125zM224 512c-17.673 0-32-14.327-32-32v0-256c0-0.001 0-0.002 0-0.003 0-11.985 6.588-22.431 16.339-27.914l0.161-0.083 288-160c4.469-2.52 9.811-4.004 15.5-4.004s11.031 1.484 15.661 4.087l-0.161-0.083 288 160c9.912 5.567 16.5 16.013 16.5 27.997 0 0.001 0 0.002 0 0.003v0 256c0 17.673-14.327 32-32 32v0c-17.673 0-32-14.327-32-32v0-237.125l-256-142.25-256 142.25v237.125c0 17.673-14.327 32-32 32v0zM960 608c-17.673 0-32-14.327-32-32v0-352c0-17.673 14.327-32 32-32v0c17.673 0 32 14.327 32 32v0 352c0 17.673-14.327 32-32 32v0zM512 352c-17.673 0-32-14.327-32-32v0-256c0-17.673 14.327-32 32-32v0c17.673 0 32 14.327 32 32v0 256c0 17.673-14.327 32-32 32v0z" />
<glyph unicode="&#xe908;" glyph-name="library" d="M96 800c-34.967 0-64-29.033-64-64v-672c0-34.968 29.037-64 64-64h64c34.963 0 64 29.033 64 64v672c0 34.967-29.033 64-64 64zM96 736h64v-672h-64zM224 544c-17.673 0-32-14.327-32-32v0c0-17.673 14.327-32 32-32v0h256c17.673 0 32 14.327 32 32v0c0 17.673-14.327 32-32 32v0zM224 192c-17.673 0-32-14.327-32-32v0c0-17.673 14.327-32 32-32v0h256c17.673 0 32 14.327 32 32v0c0 17.673-14.327 32-32 32v0zM256 672c-34.967 0-64-29.033-64-64v-544c0-34.967 29.037-64 64-64h192c34.963 0 64 29.033 64 64v544c0 34.967-29.033 64-64 64zM256 608h192v-544h-192zM544 896c-34.967 0-64-29.033-64-64v-768c0-34.967 29.037-64 64-64h128c34.963 0 64 29.030 64 64v768c0 34.97-29.033 64-64 64zM544 832h128v-768h-128zM841.5 799.625l-80.75-8.5c-40.265-4.236-68.69-41.733-64.375-81.5l69.875-643.25c4.347-39.749 39.904-70.201 80.125-66l80.875 8.5c40.269 4.23 68.566 41.734 64.25 81.5l-69.75 643.125c0 0.019 0 0.040 0 0.062s0 0.044 0 0.066v-0.003c-4.497 39.694-40.001 70.236-80.25 66zM848.25 736c4.177 0.44 9.029-3.039 9.875-9.5l69.75-643c0.689-6.352-3.164-10.558-7.375-11l-80.75-8.5c-4.259-0.448-9.179 3.006-9.875 9.375l-69.75 643.125c-0.689 6.353 3.16 10.557 7.375 11z" />
<glyph unicode="&#xe909;" glyph-name="dice" d="M91.331 705.293v-514.587l420.669-230.706 420.669 230.706v514.587l-420.669 230.706zM486.505 32.101l-344.181 188.784v426.258l344.181-188.784zM881.678 220.884l-344.181-188.784v426.258l344.181 188.784zM512 502.583l-342.147 187.633 342.147 187.633 342.147-187.633zM359.025 346.010c0-67.967-101.983-67.967-101.983 0s101.983 67.967 101.983 0zM512 741.184c0-67.967-101.983-67.967-101.983 0s101.983 67.967 101.983 0zM639.48 651.962c0-67.967-101.983-67.967-101.983 0s101.983 67.967 101.983 0zM690.472 422.499c0-67.967-101.983-67.967-101.983 0s101.983 67.967 101.983 0zM690.472 295.019c0-67.967-101.983-67.967-101.983 0s101.983 67.967 101.983 0zM690.472 167.54c0-67.967-101.983-67.967-101.983 0s101.983 67.967 101.983 0zM830.686 498.987c0-67.967-101.983-67.967-101.983 0s101.983 67.967 101.983 0zM830.686 371.507c0-67.967-101.983-67.967-101.983 0s101.983 67.967 101.983 0zM830.686 244.027c0-67.967-101.983-67.967-101.983 0s101.983 67.967 101.983 0z" />
<glyph unicode="&#xe90a;" glyph-name="chatbubbles" d="M580.625 896c-182.319 0-335.798-124.252-371.875-291-5.395-24.707-8.112-49.836-8.125-75.125v-0.125c0-201.888 164.569-370.125 374-370.125 37.016 0 78.496 9.81 102.875 16.5 24.354 6.674 46.997 14.991 53.625 17.5 2.34 0.884 4.74 1.372 7.25 1.375h0.128c2.657 0.010 5.268-0.467 7.75-1.5l0.875-0.378 114.125-40.5-1.75 0.75c5.436-2.298 11.166-3.778 17-4.375l1.625-0.25h1.625c12.706 0 25 5.125 34 14.125 8.962 8.981 14 21.137 14 33.875v2.5c-0.301 3.896-1.026 7.813-2.125 11.625l-0.128 0.378-32.75 116.25 0.128-0.125c3.288-11.824 0.767-4.722 3.375-0.25l-0.128-0.375c0.66 1.105 1.343 2.226 2.125 3.25l0.499 0.75 0.627 0.75c39.445 58.618 60.536 127.719 60.624 198.375v0.125c0.588 202.399-170.433 366-379.375 366zM580.625 832c175.81 0 315.918-135.533 315.375-301.875v-0.125c-0.052-57.992-17.373-114.636-49.75-162.75-1.804-2.464-3.561-5.007-5.125-7.625l-0.128-0.125v-0.125c-5.789-9.927-17.17-22.894-9.875-49.125v-0.128h0.128l24.5-87.625-84.875 30c-10.281 4.276-21.337 6.525-32.5 6.5h-0.128c-10.159-0.025-20.238-1.906-29.75-5.5-4.969-1.881-27.144-9.909-48-15.625-20.818-5.713-61.692-14.25-85.875-14.25-175.368 0-310 138.814-310 306.125 0.014 20.713 2.21 41.395 6.628 61.628 29.523 136.452 156.094 240.625 309.375 240.625zM124.125 526.75c-8.26-2.412-14.983-7.833-19.042-14.967l-0.083-0.158c-29.1-52.279-43.252-111.594-40.75-171.375s21.508-117.711 54.875-167.375c0.038-0.058-0.037-0.070 0-0.128-0.687-3.549-1.152-5.9-2.5-12.875-2.277-11.787-5.192-27.129-8.125-42.375-5.855-30.431-11.602-60.256-11.625-60.375-1.662-8.425-0.974-17.163 1.875-25.25 2.862-8.107 7.818-15.371 14.375-20.875l0.25-0.25 0.375-0.25c8.643-6.889 19.352-10.564 30.375-10.498 6.349 0.014 12.602 1.38 18.375 3.875l-1-0.499 112.375 44c0.037 0.006 0.093-0.012 0.125 0l0.125-0.128 0.5-0.25c41.103-16.014 86.645-26.25 133.25-26.25 61.873-0.063 122.602 16.329 176.125 47.375 9.605 5.642 15.951 15.922 15.951 27.685 0 5.918-1.607 11.461-4.407 16.217l0.082-0.15c-5.649 9.574-15.913 15.896-27.653 15.896-5.88 0-11.389-1.586-16.124-4.353l0.152 0.082c-43.75-25.377-93.548-38.802-144.125-38.75-37.195 0-75.344 8.373-110 21.875l1.125-0.499c-15.367 6.662-32.798 6.984-48.375 0.874h-0.125l-85.25-33.5c2.205 11.48 3.037 15.825 6.125 31.875 2.932 15.237 5.854 30.62 8.125 42.375s4.725 23.849 3.875 20c2.705 12.228-0.557 20.329-3 26.125s-5.119 10.145-8 14.5l-0.125 0.128c-26.788 39.869-41.992 86.38-44 134.372s9.263 95.529 32.625 137.5c2.572 4.505 4.088 9.901 4.088 15.65 0 11.969-6.571 22.404-16.303 27.892l-0.16 0.083c-4.469 2.52-9.812 4.005-15.501 4.005-3.161 0-6.216-0.458-9.1-1.313l0.226 0.058z" />
<glyph unicode="&#xe90b;" glyph-name="toggle" d="M736 736c-158.678 0-288-129.321-288-288 0-158.677 129.322-288 288-288 158.683 0 288 129.324 288 288 0 158.678-129.318 288-288 288zM736 672c124.095 0 224-99.909 224-224 0-124.088-99.905-224-224-224-124.089 0-224 99.912-224 224 0 124.091 99.911 224 224 224zM288 736c-158.679 0-288-129.321-288-288 0-158.677 129.321-288 288-288h448c158.677 0 288 129.323 288 288 0 158.679-129.323 288-288 288zM288 672h448c124.088 0 224-99.91 224-224 0-124.088-99.913-224-224-224h-448c-124.090 0-224 99.912-224 224 0 124.091 99.909 224 224 224z" />
<glyph unicode="&#xe90c;" glyph-name="partners" d="M889.171 371.62l-5.971 2.987c0.467 65.693-16.403 130.346-48.915 187.432-32.518 57.085-79.514 104.58-136.256 137.688h-2.56c0 2.133 0 3.84 0 5.973 0 24.149-4.762 48.062-13.997 70.373-9.242 22.31-22.79 42.583-39.866 59.659s-37.349 30.621-59.66 39.863-46.223 13.998-70.372 13.998c-24.15 0-48.062-4.756-70.373-13.998s-42.583-22.787-59.66-39.863c-17.076-17.076-30.621-37.348-39.863-59.659s-13.998-46.224-13.998-70.373c-0.205-2.413-0.205-4.84 0-7.253-57.977-31.907-106.118-79.069-139.21-136.378s-49.872-122.58-48.524-188.742c-2.246-0.735-4.394-1.738-6.4-2.987-21.726-11.638-40.891-27.524-56.356-46.715s-26.914-41.296-33.668-64.995c-6.754-23.706-8.673-48.525-5.646-72.986s10.942-48.058 23.271-69.402c12.33-21.338 28.824-39.987 48.501-54.822 19.678-14.842 42.138-25.574 66.046-31.565s48.776-7.11 73.125-3.296c24.35 3.808 47.685 12.48 68.619 25.485l4.694 3.418h2.56c56.902-32.845 121.53-49.92 187.228-49.466 65.697 0.448 130.088 18.406 186.53 52.026l5.549-4.269c20.934-13.011 44.269-21.677 68.621-25.491 24.346-3.808 49.216-2.688 73.126 3.302 23.904 5.984 46.368 16.717 66.042 31.558 19.68 14.842 36.173 33.485 48.506 54.829 12.326 21.338 20.243 44.941 23.27 69.402s1.107 49.28-5.645 72.979c-6.758 23.706-18.208 45.811-33.67 65-15.462 19.191-34.63 35.077-56.358 46.715l1.28-0.427zM512 805.54c19.494 0 38.549-5.78 54.757-16.611s28.841-26.223 36.301-44.232c7.46-18.010 9.411-37.827 5.608-56.945s-13.19-36.68-26.973-50.465c-13.784-13.784-31.346-23.171-50.465-26.973s-38.936-1.851-56.945 5.609c-18.010 7.459-33.402 20.092-44.232 36.3s-16.611 35.264-16.611 54.757c0.113 26.105 10.532 51.109 28.992 69.569s43.463 28.879 69.568 28.991zM141.227 163.405c-6.484 11.2-10.689 23.565-12.375 36.39-1.686 12.832-0.819 25.862 2.552 38.355s9.178 24.192 17.087 34.432c7.91 10.24 17.766 18.81 29.002 25.222 14.854 8.781 31.814 13.35 49.066 13.229 8.655 0.128 17.281-1.024 25.6-3.411 15.679-4.186 30.082-12.173 41.931-23.264 11.85-11.085 20.778-24.928 25.993-40.294s6.555-31.782 3.901-47.789c-2.653-16.006-9.219-31.117-19.112-43.974-9.894-12.864-22.81-23.085-37.603-29.754-14.792-6.675-31.004-9.587-47.193-8.486-16.19 1.094-31.858 6.176-45.613 14.784s-25.172 20.48-33.237 34.56zM384.854 120.742c16.427 27.834 25.154 59.533 25.286 91.853s-8.335 64.090-24.532 92.058c-16.198 27.966-39.544 51.121-67.644 67.087s-59.94 24.172-92.257 23.773c2.788 44.188 15.786 87.126 37.973 125.44 21.979 38.313 52.675 70.909 89.6 95.147 15.859-28.142 38.915-51.562 66.805-67.859s59.612-24.886 91.915-24.886c32.303 0 64.025 8.589 91.916 24.886s50.945 39.716 66.804 67.859c36.717-24.499 67.341-57.076 89.53-95.237s35.347-80.892 38.47-124.923c-32.346 0.368-64.205-7.882-92.301-23.901-28.102-16.020-51.43-39.232-67.592-67.252-16.16-28.019-24.57-59.84-24.364-92.179 0.206-32.346 9.020-64.058 25.536-91.866-39.81-19.642-83.607-29.862-128-29.862s-88.189 10.221-128 29.862h0.854zM882.771 163.405c-9.696-16.915-24.198-30.579-41.67-39.251-17.472-8.678-37.12-11.974-56.461-9.472-19.347 2.496-37.51 10.682-52.205 23.507-14.688 12.832-25.242 29.728-30.323 48.563-5.082 18.829-4.461 38.746 1.779 57.222 6.246 18.477 17.83 34.688 33.293 46.579 15.456 11.891 34.099 18.925 53.562 20.218 19.456 1.293 38.867-3.219 55.763-12.966 11.232-6.413 21.088-14.982 28.998-25.222s13.722-21.939 17.088-34.432c3.373-12.493 4.237-25.523 2.554-38.355-1.683-12.826-5.894-25.19-12.378-36.39z" />
<glyph unicode="&#xe90d;" glyph-name="settings" d="M425.75 908c-12.54-0.266-24.607-4.828-34.125-13-9.515-8.171-15.84-19.521-18-31.875-0.039-0.109-0.125-0.444-0.206-0.782l-0.044-0.218-13.375-95.75c-16.431-7.964-32.212-17.145-47.25-27.5-0.042-0.042-0.083-0.083-0.123-0.123l-0.001-0.001c0 0-0.125 0-0.125 0h-0.125l-89.626 36.125c0.005 0.008-0.201 0.092-0.409 0.175l-0.216 0.076c-11.8 4.487-24.832 4.663-36.75 0.5s-21.937-12.395-28.375-23.25c-0.012-0.012-0.095-0.134-0.176-0.257l-0.074-0.118-85.5-148c-6.27-10.862-8.518-23.639-6.375-36 2.148-12.398 8.512-23.623 18.125-31.75 0.249-0.222 0.534-0.468 0.823-0.708l0.052-0.042 76.375-60c0.019 0 0.040 0 0.062 0s0.044 0 0.066 0h-0.003c-0.809-8.957-1.375-18.004-1.375-27.375 0-9.465 0.594-18.705 1.375-27.75 0-0.056-0.001-0.122-0.001-0.188s0-0.132 0.001-0.198v0.010l-76.375-59.875c-0.214-0.208-0.417-0.412-0.618-0.618l-0.007-0.007c-9.775-8.089-16.4-19.385-18.625-31.875-2.223-12.486 0.125-25.286 6.5-36.25l85.5-148c0.107-0.352 0.149-0.477 0.192-0.602l-0.068 0.225c6.445-10.831 16.578-18.966 28.5-23.125 11.928-4.16 24.966-3.986 36.75 0.499 0.39 0.090 0.557 0.135 0.724 0.18l-0.224-0.052 89.75 36.25c15.019-10.501 30.883-19.789 47.375-27.75 0.019 0 0.040 0 0.062 0s0.044 0 0.066 0h-0.003c0 0 0.125-0.128 0.125-0.128l13.375-95.625c0.133-0.867 0.264-1.545 0.416-2.214l-0.041 0.214c2.482-12.067 9.036-22.895 18.5-30.75 9.48-7.869 21.319-12.282 33.625-12.5 0.093-0.001 0.203-0.002 0.313-0.002s0.22 0.001 0.329 0.002h170.983c0.111-0.001 0.243-0.002 0.375-0.002s0.264 0.001 0.395 0.002h-0.020c12.54 0.269 24.605 4.947 34.125 13.125 9.494 8.158 15.841 19.386 18 31.75 0.039 0.109 0.125 0.445 0.206 0.783l0.044 0.218 13.376 95.753c16.435 7.965 32.212 17.14 47.25 27.5 0.043 0.043 0.085 0.085 0.127 0.127l0.001 0.001c0 0 0.128 0 0.128 0l89.75-36.125c-0.005-0.008 0.202-0.092 0.41-0.174l0.217-0.075c11.807-4.491 24.84-4.655 36.75-0.499 11.89 4.164 21.927 12.486 28.375 23.375 0.085 0.084 0.166 0.165 0.247 0.247l0.003 0.003 85.5 148c6.364 10.967 8.593 23.781 6.375 36.25-2.22 12.472-8.847 23.779-18.625 31.875-0.147 0.122-0.351 0.286-0.557 0.447l-0.070 0.053-77.131 60.496c0.754 8.897 1.951 17.814 2 26.75 0 0.019 0 0.040 0 0.062s0 0.044 0 0.066v-0.003c0 9.453-0.422 18.64-1.125 27.5-0.11 0.35-0.153 0.475-0.198 0.599l0.070-0.224c0 0 0 0.125 0 0.125l76.503 60c0.277 0.214 0.481 0.378 0.683 0.544l-0.055-0.044c9.79 8.099 16.395 19.432 18.625 31.875 2.216 12.454-0.173 25.313-6.5 36.25v0.125l-85.502 147.875c-0.155 0.241-0.238 0.364-0.321 0.485l0.071-0.11c-6.439 10.818-16.457 19.094-28.375 23.25-11.906 4.145-24.958 3.868-36.75-0.625-0.388-0.088-0.556-0.131-0.723-0.175l0.223 0.050-89.876-36.125c-14.974 10.455-30.804 19.688-47.25 27.625-0.037 0.036-0.078 0.077-0.12 0.117l-0.008 0.008c0 0-0.128 0-0.128 0l-13.369 95.625c-0.134 0.868-0.266 1.545-0.419 2.215l0.041-0.215c-2.479 12.063-9.018 22.885-18.497 30.75-9.48 7.867-21.308 12.288-33.625 12.5-0.093 0.001-0.203 0.002-0.313 0.002s-0.22-0.001-0.329-0.002h-170.983c-0.111 0.001-0.243 0.002-0.375 0.002s-0.264-0.001-0.395-0.002h0.020zM435.5 844h153.125l12-85.875c1.506-10.461 5.609-20.493 11.875-29 6.256-8.486 14.578-15.33 24.125-19.875 13.36-6.458 26.212-13.874 38.375-22.375 0-0.019 0-0.040 0-0.062s0-0.044 0-0.066v0.003c8.714-6.062 18.826-9.806 29.375-11 10.553-1.195 21.268 0.282 31.125 4.25l81 32.625 76.375-132.25-68.875-54.125c-8.397-6.616-15.032-15.178-19.25-25-4.213-9.811-5.86-20.595-4.875-31.25l-0.128 0.375c0.614-7.701 1-15.148 1-22.375-0.077-12.419-1-24.82-2.75-37.125-0.194-1.323-0.304-2.85-0.304-4.403 0-10.214 4.785-19.311 12.236-25.17l0.069-0.052 82.878-65-76.5-132.25-81 32.625c-0.043 0.043-0.085 0.085-0.127 0.127l-0.001 0.001c-9.872 3.928-20.59 5.335-31.125 4.125-10.537-1.222-20.672-5.069-29.375-11.125-12.324-8.48-25.284-15.974-38.75-22.5-9.427-4.579-17.573-11.488-23.75-20-6.16-8.483-10.18-18.364-11.625-28.75l-12.122-86.503h-153.125l-12 85.875c-0.048 0.050-0.089 0.091-0.13 0.133l0.005-0.005c-1.506 10.461-5.484 20.368-11.75 28.875-6.227 8.452-14.531 15.206-24 19.75l-0.125 0.128c-13.364 6.455-26.218 13.994-38.375 22.494-8.733 6.078-18.867 9.802-29.375 11-10.536 1.189-21.262-0.152-31.125-4.125l-81-32.75-76.375 132.25 68.875 54.125c0.042 0.042 0.083 0.083 0.123 0.123l0.001 0.001c8.361 6.637 14.941 15.184 19.125 25 4.151 9.741 5.83 20.454 4.875 31v0.25c-0.645 7.545-1.125 14.866-1.125 22 0 7.266 0.461 14.426 1.125 21.75 0 0.037 0 0.081 0 0.125s0 0.088 0 0.132v-0.007c0.896 10.58-0.888 21.144-5.125 30.875-4.225 9.703-10.809 18.208-19.125 24.75l-68.75 54 76.5 132.25 81-32.625c0.042-0.042 0.083-0.083 0.123-0.123l0.001-0.001c9.871-3.931 20.571-5.343 31.125-4.125 10.5 1.211 20.566 4.98 29.25 11l0.125 0.125c12.33 8.48 25.285 15.973 38.75 22.5 0 0.019 0 0.040 0 0.062s0 0.044 0 0.066v-0.003c9.431 4.584 17.586 11.39 23.75 19.875 6.141 8.452 10.167 18.281 11.625 28.625v0.125zM527.75 607.25c-32.825 3.242-65.923-3.748-94.625-20s-51.644-41.060-65.75-70.875c-14.107-29.815-18.636-63.252-13-95.75s21.177-62.427 44.5-85.75c23.323-23.323 53.251-38.863 85.75-44.5 32.496-5.634 65.933-1.107 95.75 13s54.623 37.048 70.875 65.75c16.253 28.702 23.242 61.8 20 94.625-3.694 36.78-19.986 71.237-46.125 97.375s-60.595 42.431-97.375 46.125zM521.375 543.5c22.101-2.22 42.793-11.918 58.5-27.625s25.405-36.399 27.625-58.5c1.916-19.659-2.266-39.435-12-56.625-9.754-17.227-24.605-31.034-42.5-39.5-17.893-8.466-37.867-11.257-57.375-7.875-19.505 3.383-37.502 12.752-51.5 26.75s-23.367 31.995-26.75 51.5-0.591 39.606 7.875 57.5c8.466 17.894 22.274 32.621 39.5 42.375s36.925 13.946 56.625 12z" />
<glyph unicode="&#xe90e;" glyph-name="statistics" d="M546.5 861.5c-12.501 0-24.965-0.488-37.25-1.5-17.767-1.518-31.612-16.314-31.612-34.343 0-0.979 0.041-1.949 0.121-2.907l-0.008 0.125c1.513-17.771 16.311-31.623 34.344-31.623 1.023 0 2.035 0.045 3.036 0.132l-0.13-0.009c10.374 0.854 20.854 1.25 31.5 1.25 209.663 0 379-169.46 379-379.125s-169.337-379-379-379c-80.313 0-158.605 25.431-223.5 72.75s-113.065 114.032-137.625 190.5c-4.599 13.989-17.544 23.911-32.806 23.911-3.777 0-7.412-0.608-10.812-1.73l0.244 0.070c-13.97-4.61-23.874-17.546-23.874-32.795 0-3.735 0.594-7.331 1.693-10.699l-0.069 0.244c29.020-90.354 85.945-169.212 162.625-225.125s169.224-86.125 264.125-86.125c246.942 0 448 201.057 448 448s-201.058 448-448 448zM512 930.5c-266.053 0-482.5-216.447-482.5-482.5-0.101-67.962 14.234-135.092 42-197.125 5.523-12.106 17.522-20.369 31.45-20.369 5.088 0 9.919 1.103 14.266 3.082l-0.216-0.088 409.125 183c12.11 5.522 20.375 17.522 20.375 31.453 0 0.017 0 0.033 0 0.050v-0.003 448c0 0.011 0 0.023 0 0.035 0 19.034-15.43 34.465-34.465 34.465-0.012 0-0.025 0-0.037 0h0.002zM477.5 854.625v-384.25l-350.5-156.875c-15.155 43.608-28.569 88.166-28.5 134.5 0 216.564 167.283 388.294 379 406.625z" />
<glyph unicode="&#xe90f;" glyph-name="cash" d="M96 832c-34.967 0-64-29.033-64-64v-448c0-34.967 29.030-64 64-64h832c34.97 0 64 29.030 64 64v448c0 34.97-29.033 64-64 64zM96 768h832v-448h-832zM128 224c-17.673 0-32-14.327-32-32v0c0-17.673 14.327-32 32-32v0h768c17.673 0 32 14.327 32 32v0c0 17.673-14.327 32-32 32v0zM192 128c-17.673 0-32-14.327-32-32v0c0-17.673 14.327-32 32-32v0h640c17.673 0 32 14.327 32 32v0c0 17.673-14.327 32-32 32v0zM512 736c-105.659 0-192-86.341-192-192s86.341-192 192-192c105.659 0 192 86.341 192 192s-86.341 192-192 192zM512 672c71.071 0 128-56.928 128-128s-56.929-128-128-128c-71.071 0-128 56.929-128 128s56.929 128 128 128zM800 832c-17.673 0-32-14.327-32-32v0c0-50.909 20.255-99.752 56.25-135.75 36.001-35.997 84.843-56.25 135.75-56.25 17.673 0 32 14.327 32 32v0c0 17.673-14.327 32-32 32v0c-33.957 0-66.482 13.485-90.5 37.5-24.011 24.013-37.5 56.54-37.5 90.5 0 17.673-14.327 32-32 32v0zM224 832c-17.673 0-32-14.327-32-32v0c0-16.809-3.317-33.47-9.75-49s-15.864-29.613-27.75-41.5c-11.887-11.886-25.97-21.317-41.5-27.75s-32.191-9.75-49-9.75c-17.673 0-32-14.327-32-32v0c0-17.673 14.327-32 32-32v0c25.213 0 50.205 4.976 73.5 14.625 23.294 9.649 44.421 23.797 62.25 41.625s31.976 38.956 41.625 62.25c9.649 23.295 14.625 48.287 14.625 73.5 0 17.673-14.327 32-32 32v0zM960 480c-50.907 0-99.749-20.253-135.75-56.25-35.995-35.998-56.25-84.841-56.25-135.75 0-17.673 14.327-32 32-32v0c17.673 0 32 14.327 32 32v0c0 33.96 13.489 66.487 37.5 90.5 24.018 24.015 56.543 37.5 90.5 37.5 17.673 0 32 14.327 32 32v0c0 17.673-14.327 32-32 32v0zM64 480c-17.673 0-32-14.327-32-32v0c0-17.673 14.327-32 32-32v0c16.809 0 33.47-3.317 49-9.75s29.613-15.864 41.5-27.75c11.886-11.887 21.317-25.97 27.75-41.5s9.75-32.191 9.75-49c0-17.673 14.327-32 32-32v0c17.673 0 32 14.327 32 32v0c0 25.213-4.976 50.205-14.625 73.5s-23.797 44.421-41.625 62.25-38.956 31.976-62.25 41.625c-23.295 9.649-48.287 14.625-73.5 14.625z" />
<glyph unicode="&#xe910;" glyph-name="bar-chart" d="M64 928c-17.673 0-32-14.327-32-32v0-864c0-16.962 6.759-33.255 18.75-45.25 11.991-11.984 28.285-18.75 45.25-18.75h864c17.673 0 32 14.327 32 32v0c0 17.673-14.327 32-32 32v0h-864v864c0 17.673-14.327 32-32 32v0zM232 544c-39.385 0-72-32.615-72-72v-304c0-39.386 32.616-72 72-72h80c39.384 0 72 32.614 72 72v304c0 39.385-32.615 72-72 72zM232 480h80c4.798 0 8-3.202 8-8v-304c0-4.8-3.201-8-8-8h-80c-4.799 0-8 3.2-8 8v304c0 4.798 3.202 8 8 8zM520 640c-39.385 0-72-32.615-72-72v-400c0-39.386 32.616-72 72-72h80c39.384 0 72 32.614 72 72v400c0 39.385-32.615 72-72 72zM520 576h80c4.798 0 8-3.202 8-8v-400c0-4.8-3.201-8-8-8h-80c-4.799 0-8 3.2-8 8v400c0 4.798 3.202 8 8 8zM807.25 768c-39.384 0-72-32.61-72-72v-528c0-39.391 32.617-72 72-72h80c39.384 0 72 32.616 72 72v528c0 39.384-32.614 72-72 72zM807.25 704h80c4.8 0 8-3.201 8-8v-528c0-4.801-3.199-8-8-8h-80c-4.79 0-8 3.205-8 8v528c0 4.793 3.212 8 8 8z" />
<glyph unicode="&#xe911;" glyph-name="ribbon" d="M512 928c-158.679 0-288-129.321-288-288s129.321-288 288-288c158.677 0 288 129.321 288 288s-129.323 288-288 288zM512 864c124.089 0 224-99.91 224-224s-99.911-224-224-224c-124.091 0-224 99.909-224 224s99.909 224 224 224zM302.875 532.375c-4.469 2.52-9.812 4.005-15.502 4.005-11.986 0-22.433-6.59-27.915-16.344l-0.083-0.161-191.375-344.375c-2.519-4.468-4.002-9.809-4.002-15.497 0-17.675 14.328-32.003 32.003-32.003 0.044 0 0.087 0 0.131 0h-0.007l173.75 0.875 86.625-145.25c5.684-9.422 15.865-15.625 27.495-15.625 12.871 0 23.967 7.598 29.048 18.553l0.082 0.198 176.625 388.625c1.813 3.89 2.871 8.446 2.871 13.249 0 12.869-7.596 23.963-18.549 29.044l-0.198 0.082c-3.89 1.813-8.446 2.871-13.249 2.871-12.869 0-23.963-7.596-29.044-18.549l-0.082-0.198-151.375-333-55.25 92.75c-5.702 9.557-13.789 17.525-23.5 23-9.678 5.456-20.617 8.301-31.75 8.25l-119.125-0.627 164.75 296.625c2.539 4.482 4.036 9.845 4.036 15.556 0 11.948-6.548 22.367-16.252 27.863l-0.159 0.083zM741.875 542.75c-2.634 0.782-5.66 1.231-8.792 1.231-5.672 0-11-1.476-15.62-4.065l0.162 0.083c-9.915-5.565-16.505-16.012-16.505-27.998 0-5.69 1.485-11.033 4.088-15.662l-0.083 0.161 168.375-304.25-119.125 0.627c-11.108 0.051-22.042-2.769-31.75-8.25-9.704-5.474-17.796-13.447-23.5-23l-55.25-92.75-102.75 226c-5.163 11.15-16.258 18.746-29.126 18.746-4.803 0-9.358-1.058-13.446-2.954l0.198 0.082c-11.15-5.163-18.746-16.258-18.746-29.126 0-4.803 1.058-9.358 2.954-13.446l-0.082 0.198 128-281.625c5.164-11.153 16.26-18.75 29.13-18.75 11.63 0 21.811 6.203 27.414 15.482l0.080 0.143 86.625 145.248 173.75-0.875c0.037 0 0.080 0 0.124 0 17.675 0 32.003 14.328 32.003 32.003 0 5.688-1.484 11.029-4.085 15.658l0.083-0.161-194.875 352c-4.147 7.365-10.922 12.838-19.024 15.194l-0.226 0.056zM512 800c-87.986 0-160-72.014-160-160s72.014-160 160-160c87.986 0 160 72.013 160 160s-72.014 160-160 160zM512 736c53.398 0 96-42.602 96-96s-42.602-96-96-96c-53.398 0-96 42.602-96 96s42.602 96 96 96z" />
<glyph unicode="&#xe912;" glyph-name="call" d="M248.375 894.875c-10.609 2.392-21.726 0.12-28.25-2.25s-10.353-4.423-14.75-6.25h-0.125v-0.125c-19.824-8.342-38.898-18.439-56.875-30.25l-0.125-0.125c-34.258-22.76-58.301-46.289-73.375-78.5-18.998-40.597-19.839-112.828 47-234.25 64.967-118.022 113.414-182.179 207.75-276.25 94.887-94.625 170.354-147.289 276.375-206.75 67.054-37.554 115.429-54.034 153.25-58.75s65.751 4.17 81.75 11.625c32.199 14.993 56.033 38.932 78.875 73.25v0.128c11.845 17.958 22.015 36.924 30.375 56.75v0.128c1.83 4.376 3.993 8.097 6.375 14.625s4.532 17.756 2.125 28.375c-4.813 21.239-16.34 30.414-34 48.25-38.993 39.283-113.83 83.179-154.375 103.625-24.3 12.24-39.883 22.225-63.625 22.25s-40.806-12.277-60.625-27v-0.125c-13.675-10.173-23.703-18.099-30.25-21.506s-8.209-4.089-16.25-2.375c-7.536 1.608-30.373 10.926-55.375 26.5s-53.674 37.383-80.125 63.75c-26.443 26.359-48.738 55.501-64.875 81s-25.886 49.065-27.375 56c-1.693 7.885-1.074 9.333 2.375 15.875s11.457 16.533 21.625 30.375c13.95 18.994 25.538 36.725 25.5 59.625s-9.015 39.071-20.375 63.5c-20.076 43.069-65.297 116.43-104.375 154.875-17.851 17.632-27.032 29.216-48.25 34zM236.5 830.125c-2.848 0.339 0.769-0.695 15.125-14.875h0.125c25.163-24.755 76.087-103.72 91.25-136.25 11.24-24.171 14.373-35.375 14.375-36.625s-0.51-4.619-13-21.625c-8.592-11.698-18.503-22.732-26.75-38.375s-13.062-37.415-8.375-59.25c4.891-22.785 17.262-47.339 35.875-76.75s43.578-61.924 73.875-92.125c30.289-30.193 62.462-54.663 91.5-72.75s53.467-29.871 75.75-34.625c21.779-4.641 43.501-0.070 59.25 8.125 15.749 8.197 26.944 18.223 38.75 27 18.383 13.656 22.418 14.375 22.375 14.375s10.705-3.137 35-15.375c34.105-17.199 113.091-66.783 137.625-91.5 14.206-14.347 15.222-17.998 14.875-15.125-0.936-2.088-1.377-2.791-2.875-6.375-6.819-16.172-15.092-31.595-24.75-46.25-19.757-29.682-31.451-40.949-52.5-50.75-10.619-4.948-20.821-9.374-46.875-6.125s-67.287 16.017-129.75 51c-103.379 57.979-171.107 105.234-262.5 196.375-91.944 91.686-133.562 146.732-196.875 261.75-61.441 111.617-51.092 163.767-45.25 176.25 9.766 20.868 21.258 32.615 51 52.375 14.669 9.625 30.203 17.82 46.375 24.625h-0.25c3.679 1.529 4.518 1.935 6.625 2.875z" />
<glyph unicode="&#xe913;" glyph-name="book" d="M96.125 864c-8.425 0.031-16.83-1.663-24.625-4.875s-14.791-7.916-20.75-13.875c-5.959-5.959-10.664-12.955-13.875-20.75s-4.906-16.197-4.875-24.625v-572c0-16.487 5.076-33 16.25-46.125s29.178-21.75 47.75-21.75c125.833 0 211.241-13.005 270.625-33.75s93.090-48.11 120.375-82.25c5.914-7.355 14.912-12.023 25-12.023s19.086 4.668 24.952 11.961l0.048 0.062c27.486 34.358 61.173 61.679 120.5 82.375s144.651 33.625 270.5 33.625c16.965 0 33.258 6.77 45.25 18.75 11.98 11.992 18.75 28.285 18.75 45.25v576c0.022 8.415-1.67 16.74-4.875 24.5-3.208 7.738-7.95 14.827-13.875 20.75-5.955 5.953-12.951 10.663-20.75 13.875-7.81 3.222-16.2 4.906-24.625 4.875-134.164-0.602-234.391-16.902-308.375-52.25-50.225-23.997-82.906-60.886-107.5-102.625-24.594 41.739-57.274 78.628-107.5 102.625-73.984 35.348-174.212 51.648-308.375 52.25zM96 800c128.89-0.592 220.67-17.236 280.875-46 60.231-28.777 90.162-66.755 104.125-121.875 3.662-13.939 16.15-24.053 31-24.053s27.338 10.114 30.95 23.83l0.050 0.223c13.963 55.12 43.895 93.098 104.125 121.875 60.204 28.764 151.985 45.408 280.875 46v-576c-130.151 0-222.228-12.916-291.625-37.125-57.776-20.155-92.598-52.308-124.375-85.625-31.68 33.214-66.457 65.311-124.25 85.5-69.222 24.182-161.327 37.047-290.875 37.125-0.142 0.258-0.875 1.17-0.875 4zM512 672c-17.673 0-32-14.327-32-32v0-576c0-17.673 14.327-32 32-32v0c17.673 0 32 14.327 32 32v0 576c0 17.673-14.327 32-32 32v0z" />
<glyph unicode="&#xe914;" glyph-name="people" d="M672 800c-95.242 0-170.992-77.879-163.875-178.25 6.792-95.935 77.766-173.75 163.875-173.75 86.114 0 156.966 77.882 163.875 173.75 7.158 99.166-68.22 178.25-163.875 178.25zM672 736c62.86 0 104.961-42.757 100.125-109.75-4.815-66.813-54.642-114.25-100.125-114.25-45.492 0-95.397 47.465-100.125 114.25-4.883 68.869 36.847 109.75 100.125 109.75zM672 384c-140.936 0-282.52-72.16-318.125-215.125-4.204-16.854-1.26-34.506 8.375-48.625s27.287-24.25 46.125-24.25h527.25c18.838 0 36.511 10.261 46.125 24.375 9.589 14.079 12.463 31.607 8.375 48.375-35.511 144.881-177.5 215.25-318.125 215.25zM672 320c117.417 0 222.682-53.612 252.875-160h-505.75c30.159 104.441 135.834 160 252.875 160zM294 736c-79.593 0-143.783-66.604-137.875-150.125 5.643-79.715 64.558-145.875 137.875-145.875 73.325 0 132.137 66.227 137.875 145.875 5.953 82.623-57.864 150.125-137.875 150.125zM294 672c46.63 0 77.732-31.567 74.125-81.625-3.622-50.272-42.33-86.375-74.125-86.375-31.803 0-70.568 36.13-74.125 86.375-3.653 51.639 27.078 81.625 74.125 81.625zM294 402.875c-114.605 0-231.063-59.029-260.375-176.625-3.758-15.172-1.155-31.144 7.625-44s25.010-22.25 42.125-22.25h224.625c17.673 0 32 14.327 32 32v0c0 17.673-14.327 32-32 32v0h-202.25c27.349 72.858 101.341 114.875 188.25 114.875 38.92 0 73.79-5.873 104.625-20 3.931-1.857 8.538-2.94 13.399-2.94 12.847 0 23.926 7.57 29.018 18.494l0.082 0.197c1.857 3.931 2.94 8.538 2.94 13.399 0 12.847-7.57 23.926-18.494 29.018l-0.197 0.082c-41.364 18.952-86.015 25.75-131.375 25.75z" />
<glyph unicode="&#xe915;" glyph-name="home" d="M160 568c-17.673 0-32-14.327-32-32v0-472c0-16.962 6.759-33.255 18.75-45.25 11.991-11.984 28.285-18.75 45.25-18.75h192c17.672 0.002 31.998 14.328 32 32v0 272c0 4.254 1.617 8.367 4.625 11.375s7.12 4.625 11.375 4.625h160c4.255 0 8.366-1.616 11.375-4.625s4.625-7.121 4.625-11.375v-272c0.002-17.672 14.328-31.998 32-32h192c16.965 0 33.258 6.77 45.25 18.75 11.98 11.992 18.75 28.285 18.75 45.25v472c0 17.673-14.327 32-32 32v0c-17.673 0-32-14.327-32-32v0-472h-160v240c0 21.205-8.38 41.63-23.375 56.625s-35.42 23.375-56.625 23.375h-160c-21.205 0-41.631-8.381-56.625-23.375s-23.375-35.42-23.375-56.625v-240h-160v472c0 17.673-14.327 32-32 32v0zM512.125 896c-15.136 0.027-31.427-3.636-45-17.875l-425.25-407c-6.094-5.836-9.881-14.038-9.881-23.125 0-8.589 3.384-16.389 8.892-22.137l-0.011 0.011c5.836-6.094 14.038-9.881 23.125-9.881 8.589 0 16.389 3.384 22.137 8.892l-0.011-0.011 425.625 407.375c1.052-0.287 1.777-1.446-1.25 1.75 0.37-0.388 0.737-0.755 1.112-1.113l0.013-0.012 0.375-0.375 0.375 0.375c0.344 0.33 0.67 0.656 0.989 0.989l0.011 0.011c-2.883-3.025-2.132-1.903-1.125-1.625l425.625-407.375c5.737-5.497 13.536-8.881 22.125-8.881 9.087 0 17.289 3.787 23.114 9.87l0.011 0.012c5.497 5.737 8.881 13.536 8.881 22.125 0 9.087-3.787 17.289-9.87 23.114l-0.012 0.011-425.125 406.875c-13.52 14.277-29.739 17.973-44.875 18zM704 864c-17.672-0.002-31.998-14.328-32-32v0-138c0-17.673 14.327-32 32-32v0c17.673 0 32 14.327 32 32v0 106h32v-198c0-17.673 14.327-32 32-32v0c17.673 0 32 14.327 32 32v0 230c-0.002 17.672-14.328 31.998-32 32v0z" />
<glyph unicode="&#xe916;" glyph-name="arrow-back-circle" horiz-adv-x="1088" d="M532 639.5c-8.836-0.001-16.835-3.584-22.625-9.375v0l-158.75-160c-5.751-5.785-9.307-13.758-9.307-22.562s3.555-16.778 9.308-22.564l-0.001 0.001 158.75-160c5.797-5.828 13.822-9.434 22.689-9.434 8.804 0 16.777 3.555 22.562 9.308l-0.001-0.001c5.864 5.803 9.496 13.852 9.496 22.75 0 8.773-3.531 16.722-9.249 22.503l0.003-0.003-136.375 137.378 136.375 137.5c5.715 5.778 9.246 13.727 9.246 22.5 0 8.898-3.631 16.947-9.493 22.747l-0.003 0.003c-5.778 5.718-13.729 9.25-22.504 9.25-0.042 0-0.085 0-0.127 0h0.007zM395.375 479.5c-17.673 0-32-14.327-32-32v0c0-17.673 14.327-32 32-32v0h322c17.673 0 32 14.327 32 32v0c0 17.673-14.327 32-32 32v0zM545.375 863.5c-229.308 0-416-186.692-416-416s186.692-416 416-416c229.305 0 416 186.691 416 416s-186.695 416-416 416zM545.375 799.5c194.688 0 352-157.308 352-352s-157.312-352-352-352c-194.692 0-352 157.307-352 352s157.308 352 352 352z" />
<glyph unicode="&#xe917;" glyph-name="log-out" d="M554.697 64.006c0.002-5.606-1.101-11.155-3.244-16.333-2.144-5.171-5.286-9.882-9.249-13.843s-8.666-7.104-13.843-9.248c-5.178-2.144-10.726-3.245-16.33-3.245h-170.666c-56.559 0.070-110.783 22.566-150.776 62.56s-62.491 94.214-62.557 150.771v426.671c0.067 56.559 22.564 110.782 62.557 150.775s94.218 62.49 150.776 62.557h170.666c11.316 0 22.168-4.495 30.169-12.497s12.497-18.854 12.497-30.17c0-11.316-4.495-22.168-12.497-30.17s-18.853-12.496-30.169-12.496h-170.666c-33.936-0.037-66.472-13.535-90.468-37.532s-37.494-56.532-37.532-90.468v-426.671c0.037-33.933 13.535-66.47 37.532-90.464 23.997-24 56.532-37.498 90.468-37.536h170.666c5.603 0.006 11.152-1.101 16.33-3.238 5.177-2.144 9.881-5.286 13.843-9.254 3.962-3.962 7.105-8.666 9.249-13.843s3.246-10.726 3.244-16.326zM892.742 431.704c3.213 7.8 4.051 16.376 2.406 24.65s-5.702 15.878-11.654 21.856l-170.63 170.63c-3.962 3.962-8.666 7.104-13.837 9.248-5.178 2.144-10.726 3.248-16.326 3.248-5.606 0-11.155-1.104-16.326-3.248-5.178-2.144-9.882-5.286-13.843-9.248s-7.104-8.664-9.248-13.841c-2.144-5.176-3.245-10.724-3.245-16.326s1.101-11.15 3.245-16.326c2.144-5.176 5.286-9.88 9.248-13.841l97.837-97.834h-323.671c-11.315 0-22.168-4.495-30.169-12.497s-12.497-18.854-12.497-30.17c0-11.316 4.495-22.168 12.497-30.17s18.854-12.496 30.169-12.496h323.671l-97.837-97.833c-3.962-3.962-7.104-8.666-9.248-13.843s-3.245-10.72-3.245-16.326c0-5.6 1.101-11.149 3.245-16.326s5.286-9.875 9.248-13.837c3.962-3.962 8.666-7.104 13.843-9.248 5.171-2.144 10.72-3.251 16.326-3.251 5.6 0 11.149 1.107 16.326 3.251 5.171 2.144 9.875 5.286 13.837 9.248l170.63 170.632c3.968 3.977 7.11 8.701 9.248 13.898z" />
<glyph unicode="&#xe918;" glyph-name="caret-down" d="M195.994 579.869l279.56-326.237c4.506-5.261 10.096-9.478 16.386-12.371s13.132-4.39 20.054-4.39c6.923 0 13.764 1.498 20.054 4.39s11.88 7.11 16.385 12.371l279.56 326.237c26.682 31.14 4.557 79.24-36.442 79.24h-559.198c-41 0-63.12-48.1-36.36-79.24z" />
<glyph unicode="&#xe919;" glyph-name="search1" d="M442.167 874.667c-70.573 0-139.57-20.958-198.25-60.167s-104.409-94.965-131.417-160.167c-27.007-65.201-34.102-136.949-20.333-206.167s47.763-132.764 97.667-182.667c49.902-49.901 113.53-83.899 182.75-97.667 69.215-13.767 140.966-6.673 206.167 20.333 65.204 27.010 120.959 72.739 160.167 131.417 39.206 58.681 60.083 127.675 60.083 198.25-0.005 94.625-37.593 185.426-104.5 252.333-66.908 66.909-157.711 104.494-252.333 104.5zM442.167 789.333c72.025-0.005 141.071-28.57 192-79.5s79.496-119.975 79.5-192c0-53.704-15.913-106.175-45.75-150.833-29.836-44.652-72.213-79.445-121.833-100-49.615-20.55-104.246-25.976-156.917-15.5s-101.025 36.359-139 74.333c-37.974 37.973-63.773 86.327-74.25 139s-5.135 107.3 15.417 156.917c20.552 49.616 55.347 91.997 100 121.833s97.13 45.75 150.833 45.75zM676.583 326.083c-11.781-0.002-22.447-4.778-30.167-12.5v0c-7.719-7.721-12.494-18.386-12.494-30.167s4.774-22.446 12.494-30.167l219.417-219.417c7.721-7.719 18.386-12.494 30.167-12.494s22.446 4.774 30.167 12.494v0c7.719 7.721 12.494 18.386 12.494 30.167s-4.774 22.446-12.494 30.167l-219.417 219.417c-7.72 7.722-18.385 12.498-30.166 12.5v0z" />
<glyph unicode="&#xe91a;" glyph-name="caret-up" d="M828.006 316.131l-279.56 326.237c-4.506 5.261-10.096 9.478-16.386 12.371s-13.132 4.39-20.054 4.39c-6.923 0-13.764-1.498-20.054-4.39s-11.88-7.11-16.385-12.371l-279.56-326.237c-26.682-31.14-4.557-79.24 36.442-79.24h559.198c41 0 63.12 48.1 36.36 79.24z" />
<glyph unicode="&#xe91b;" glyph-name="caret-left" d="M643.869 764.006l-326.237-279.56c-5.261-4.506-9.478-10.096-12.371-16.386s-4.39-13.132-4.39-20.054c0-6.923 1.498-13.764 4.39-20.054s7.11-11.88 12.371-16.385l326.237-279.56c31.14-26.682 79.24-4.557 79.24 36.442v559.198c0 41-48.1 63.12-79.24 36.36z" />
<glyph unicode="&#xe91c;" glyph-name="caret-right" d="M380.131 131.994l326.237 279.56c5.261 4.506 9.478 10.096 12.371 16.386s4.39 13.132 4.39 20.054c0 6.923-1.498 13.764-4.39 20.054s-7.11 11.88-12.371 16.385l-326.237 279.56c-31.14 26.682-79.24 4.557-79.24-36.442v-559.198c0-41 48.1-63.12 79.24-36.36z" />
<glyph unicode="&#xe91d;" glyph-name="flag" horiz-adv-x="1061" d="M182.857 804.571c0-26.286-14.286-49.714-36.571-62.857v-723.429c0-9.714-8.571-18.286-18.286-18.286h-36.571c-9.714 0-18.286 8.571-18.286 18.286v723.429c-22.286 13.143-36.571 36.571-36.571 62.857 0 40.571 32.571 73.143 73.143 73.143s73.143-32.571 73.143-73.143zM1024 768v-436c0-21.143-13.143-29.143-29.714-37.714-64.571-34.857-136-66.286-210.857-66.286-105.143 0-155.429 80-280 80-90.857 0-186.286-41.143-265.143-83.429-6.286-3.429-12-5.143-18.857-5.143-20 0-36.571 16.571-36.571 36.571v424c0 13.714 6.857 23.429 17.714 31.429 13.714 9.143 30.286 17.143 45.143 24.571 72 36.571 159.429 68.571 240.571 68.571 89.714 0 160-29.714 239.429-66.857 16-8 32.571-10.857 50.286-10.857 89.714 0 186.286 77.714 211.429 77.714 20 0 36.571-16.571 36.571-36.571z" />
<glyph unicode="&#xe91e;" glyph-name="graduation-cap, mortar-board" horiz-adv-x="1317" d="M1013.714 473.143l10.286-180.571c4.571-80.571-164-146.286-365.714-146.286s-370.286 65.714-365.714 146.286l10.286 180.571 328-103.429c9.143-2.857 18.286-4 27.429-4s18.286 1.143 27.429 4zM1316.571 658.286c0-8-5.143-14.857-12.571-17.714l-640-201.143c-2.286-0.571-4-0.571-5.714-0.571s-3.429 0-5.714 0.571l-372.571 117.714c-32.571-25.714-55.429-88.571-60-165.714 21.714-12.571 36-35.429 36-62.286 0-25.714-13.143-48-33.143-61.143l33.143-247.429c0.571-5.143-1.143-10.286-4.571-14.286s-8.571-6.286-13.714-6.286h-109.714c-5.143 0-10.286 2.286-13.714 6.286s-5.143 9.143-4.571 14.286l33.143 247.429c-20 13.143-33.143 35.429-33.143 61.143 0 27.429 15.429 50.857 37.143 63.429 3.429 66.857 20.571 138.857 56 188.571l-190.286 59.429c-7.429 2.857-12.571 9.714-12.571 17.714s5.143 14.857 12.571 17.714l640 201.143c2.286 0.571 4 0.571 5.714 0.571s3.429 0 5.714-0.571l640-201.143c7.429-2.857 12.571-9.714 12.571-17.714z" />
<glyph unicode="&#xe92c;" glyph-name="copy" d="M640 704v256h-448l-192-192v-576h384v-256h640v768h-384zM192 869.49v-101.49h-101.49l101.49 101.49zM64 256v448h192v192h320v-192l-192-192v-256h-320zM576 613.49v-101.49h-101.49l101.49 101.49zM960 0h-512v448h192v192h320v-640z" />
<glyph unicode="&#xe984;" glyph-name="spinner11" d="M1024 576h-384l143.53 143.53c-72.53 72.526-168.96 112.47-271.53 112.47s-199-39.944-271.53-112.47c-72.526-72.53-112.47-168.96-112.47-271.53s39.944-199 112.47-271.53c72.53-72.526 168.96-112.47 271.53-112.47s199 39.944 271.528 112.472c6.056 6.054 11.86 12.292 17.456 18.668l96.32-84.282c-93.846-107.166-231.664-174.858-385.304-174.858-282.77 0-512 229.23-512 512s229.23 512 512 512c141.386 0 269.368-57.326 362.016-149.984l149.984 149.984v-384z" />
<glyph unicode="&#xe986;" glyph-name="search" d="M992.262 88.604l-242.552 206.294c-25.074 22.566-51.89 32.926-73.552 31.926 57.256 67.068 91.842 154.078 91.842 249.176 0 212.078-171.922 384-384 384-212.076 0-384-171.922-384-384s171.922-384 384-384c95.098 0 182.108 34.586 249.176 91.844-1-21.662 9.36-48.478 31.926-73.552l206.294-242.552c35.322-39.246 93.022-42.554 128.22-7.356s31.892 92.898-7.354 128.22zM384 320c-141.384 0-256 114.616-256 256s114.616 256 256 256 256-114.616 256-256-114.614-256-256-256z" />
<glyph unicode="&#xe98d;" glyph-name="key" d="M704 960c-176.73 0-320-143.268-320-320 0-20.026 1.858-39.616 5.376-58.624l-389.376-389.376v-192c0-35.346 28.654-64 64-64h64v64h128v128h128v128h128l83.042 83.042c34.010-12.316 70.696-19.042 108.958-19.042 176.73 0 320 143.268 320 320s-143.27 320-320 320zM799.874 639.874c-53.020 0-96 42.98-96 96s42.98 96 96 96 96-42.98 96-96-42.98-96-96-96z" />
<glyph unicode="&#xe992;" glyph-name="equalizer" d="M448 832v16c0 26.4-21.6 48-48 48h-160c-26.4 0-48-21.6-48-48v-16h-192v-128h192v-16c0-26.4 21.6-48 48-48h160c26.4 0 48 21.6 48 48v16h576v128h-576zM256 704v128h128v-128h-128zM832 528c0 26.4-21.6 48-48 48h-160c-26.4 0-48-21.6-48-48v-16h-576v-128h576v-16c0-26.4 21.6-48 48-48h160c26.4 0 48 21.6 48 48v16h192v128h-192v16zM640 384v128h128v-128h-128zM448 208c0 26.4-21.6 48-48 48h-160c-26.4 0-48-21.6-48-48v-16h-192v-128h192v-16c0-26.4 21.6-48 48-48h160c26.4 0 48 21.6 48 48v16h576v128h-576v16zM256 64v128h128v-128h-128z" />
<glyph unicode="&#xe9ae;" glyph-name="briefcase" d="M960 704h-256v64c0 35.2-28.8 64-64 64h-256c-35.204 0-64-28.8-64-64v-64h-256c-35.2 0-64-28.8-64-64v-576c0-35.202 28.796-64 64-64h896c35.2 0 64 28.798 64 64v576c0 35.2-28.8 64-64 64zM384 767.884c0.034 0.040 0.074 0.082 0.114 0.116h255.772c0.042-0.034 0.082-0.076 0.118-0.116v-63.884h-256.004v63.884zM960 448h-128v-96c0-17.602-14.4-32-32-32h-64c-17.604 0-32 14.398-32 32v96h-384v-96c0-17.602-14.4-32-32-32h-64c-17.602 0-32 14.398-32 32v96h-128v64h896v-64z" />
<glyph unicode="&#xe9c2;" glyph-name="cloud-download" d="M891.004 599.94c-3.242 128.698-108.458 232.060-237.862 232.060-75.792 0-143.266-35.494-186.854-90.732-24.442 31.598-62.69 51.96-105.708 51.96-73.81 0-133.642-59.876-133.642-133.722 0-6.436 0.48-12.76 1.364-18.954-11.222 2.024-22.766 3.138-34.57 3.138-106.998 0.002-193.732-86.786-193.732-193.842 0-107.062 86.734-193.848 193.73-193.848h91.76l226.51-234.51 226.51 234.51 111.482 0.012c96.138 0.184 174.008 78.21 174.008 174.446 0 82.090-56.678 150.9-132.996 169.482zM512 128l-192 192h128v192h128v-192h128l-192-192z" />
<glyph unicode="&#xe9dc;" glyph-name="man" d="M576 864c0-53.019-42.981-96-96-96s-96 42.981-96 96c0 53.019 42.981 96 96 96s96-42.981 96-96zM576 704h-192c-35.346 0-64-28.654-64-64v-320h64v-384h80v384h32v-384h80v384h64v320c0 35.346-28.652 64-64 64z" />
<glyph unicode="&#xe9e5;" glyph-name="sad" d="M512-64c282.77 0 512 229.23 512 512s-229.23 512-512 512-512-229.23-512-512 229.23-512 512-512zM512 864c229.75 0 416-186.25 416-416s-186.25-416-416-416-416 186.25-416 416 186.25 416 416 416zM256 640c0 35.346 28.654 64 64 64s64-28.654 64-64c0-35.346-28.654-64-64-64s-64 28.654-64 64zM640 640c0 35.346 28.654 64 64 64s64-28.654 64-64c0-35.346-28.654-64-64-64s-64 28.654-64 64zM319.902 179.26l-82.328 49.396c55.962 93.070 157.916 155.344 274.426 155.344 116.508 0 218.462-62.274 274.426-155.344l-82.328-49.396c-39.174 65.148-110.542 108.74-192.098 108.74-81.558 0-152.924-43.592-192.098-108.74z" />
<glyph unicode="&#xea0b;" glyph-name="minus" d="M0 544v-192c0-17.672 14.328-32 32-32h960c17.672 0 32 14.328 32 32v192c0 17.672-14.328 32-32 32h-960c-17.672 0-32-14.328-32-32z" />
<glyph unicode="&#xe901f;" glyph-name="circle-with-plus-1" d="M512 890.88c-237.517 0-430.080-192.563-430.080-430.080s192.563-430.080 430.080-430.080 430.080 192.563 430.080 430.080c0 237.517-192.563 430.080-430.080 430.080zM768 409.6h-204.8v-204.8h-102.4v204.8h-204.8v102.4h204.8v204.8h102.4v-204.8h204.8v-102.4z" />
<glyph unicode="&#xe90df;" glyph-name="checkmark-1" d="M192 576l-192-192 384-384 640 640-192 192-448-448z" />
<glyph unicode="&#xe90ff;" glyph-name="cancel-1" d="M983.072 743.232l-294.304-296.096 294.304-294.336c12.32-12.288 12.32-32.224 0-44.544l-133.632-133.6c-12.256-12.32-32.192-12.32-44.512 0l-293.824 293.824-292.064-293.824c-12.288-12.32-32.224-12.32-44.544 0l-133.6 133.6c-12.288 12.32-12.288 32.256 0 44.544l292.064 293.824-292.032 292.032c-12.288 12.288-12.288 32.224 0 44.544l133.6 133.6c12.288 12.32 32.224 12.32 44.544 0l291.52-291.52 294.368 296.096c12.32 12.32 32.256 12.32 44.512 0l133.632-133.6c12.256-12.32 12.256-32.256-0.032-44.544z" />
<glyph unicode="&#xe98ff;" glyph-name="enlarge-1" d="M1024 960h-416l160-160-192-192 96-96 192 192 160-160zM1024-64v416l-160-160-192 192-96-96 192-192-160-160zM0-64h416l-160 160 192 192-96 96-192-192-160 160zM0 960v-416l160 160 192-192 96 96-192 192 160 160z" />
<glyph unicode="&#xe9faf;" glyph-name="star-full-1" d="M1024 562.95l-353.78 51.408-158.22 320.582-158.216-320.582-353.784-51.408 256-249.538-60.432-352.352 316.432 166.358 316.432-166.358-60.434 352.352 256.002 249.538z" />
<glyph unicode="&#xea0cc;" glyph-name="info-1" d="M448 656c0 26.4 21.6 48 48 48h32c26.4 0 48-21.6 48-48v-32c0-26.4-21.6-48-48-48h-32c-26.4 0-48 21.6-48 48v32zM640 192h-256v64h64v192h-64v64h192v-256h64zM512 960c-282.77 0-512-229.23-512-512s229.23-512 512-512 512 229.23 512 512-229.23 512-512 512zM512 32c-229.75 0-416 186.25-416 416s186.25 416 416 416 416-186.25 416-416-186.25-416-416-416z" />
<glyph unicode="&#xea0ff;" glyph-name="plus-1" d="M992 576h-352v352c0 17.672-14.328 32-32 32h-192c-17.672 0-32-14.328-32-32v-352h-352c-17.672 0-32-14.328-32-32v-192c0-17.672 14.328-32 32-32h352v-352c0-17.672 14.328-32 32-32h192c17.672 0 32 14.328 32 32v352h352c17.672 0 32 14.328 32 32v192c0 17.672-14.328 32-32 32z" />
</font>
</defs>
</svg>
